<mxfile host="app.diagrams.net" agent="Mozilla/5.0 (Windows NT 10.0; Win64; x64) AppleWebKit/537.36 (KHTML, like Gecko) Chrome/131.0.0.0 Safari/537.36 Edg/131.0.0.0" version="24.9.1">
  <diagram name="Page-1" id="JRFiebxuHzd9zHve-aZE">
    <mxGraphModel dx="1316" dy="2039" grid="0" gridSize="10" guides="1" tooltips="1" connect="1" arrows="1" fold="1" page="0" pageScale="1" pageWidth="850" pageHeight="1100" math="0" shadow="0">
      <root>
        <mxCell id="0" />
        <mxCell id="1" parent="0" />
        <mxCell id="HjpduZWSPB27V8v7-c5q-1151" style="edgeStyle=none;curved=1;rounded=0;orthogonalLoop=1;jettySize=auto;html=1;exitX=0.5;exitY=0;exitDx=0;exitDy=0;fontSize=12;startSize=8;endSize=8;" edge="1" parent="1" source="HjpduZWSPB27V8v7-c5q-876">
          <mxGeometry relative="1" as="geometry">
            <mxPoint x="416" y="-850" as="targetPoint" />
          </mxGeometry>
        </mxCell>
        <mxCell id="HjpduZWSPB27V8v7-c5q-876" value="Table" style="shape=table;startSize=30;container=1;collapsible=0;childLayout=tableLayout;" vertex="1" parent="1">
          <mxGeometry x="-145" y="-10" width="25" height="38.2" as="geometry" />
        </mxCell>
        <mxCell id="HjpduZWSPB27V8v7-c5q-877" value="" style="shape=tableRow;horizontal=0;startSize=0;swimlaneHead=0;swimlaneBody=0;strokeColor=inherit;top=0;left=0;bottom=0;right=0;collapsible=0;dropTarget=0;fillColor=none;points=[[0,0.5],[1,0.5]];portConstraint=eastwest;" vertex="1" parent="HjpduZWSPB27V8v7-c5q-876">
          <mxGeometry y="30" width="25" height="4" as="geometry" />
        </mxCell>
        <mxCell id="HjpduZWSPB27V8v7-c5q-878" value="" style="shape=partialRectangle;html=1;whiteSpace=wrap;connectable=0;strokeColor=inherit;overflow=hidden;fillColor=none;top=0;left=0;bottom=0;right=0;pointerEvents=1;" vertex="1" parent="HjpduZWSPB27V8v7-c5q-877">
          <mxGeometry width="2" height="4" as="geometry">
            <mxRectangle width="2" height="4" as="alternateBounds" />
          </mxGeometry>
        </mxCell>
        <mxCell id="HjpduZWSPB27V8v7-c5q-879" value="" style="shape=partialRectangle;html=1;whiteSpace=wrap;connectable=0;strokeColor=inherit;overflow=hidden;fillColor=none;top=0;left=0;bottom=0;right=0;pointerEvents=1;" vertex="1" parent="HjpduZWSPB27V8v7-c5q-877">
          <mxGeometry x="2" height="4" as="geometry">
            <mxRectangle height="4" as="alternateBounds" />
          </mxGeometry>
        </mxCell>
        <mxCell id="HjpduZWSPB27V8v7-c5q-880" value="" style="shape=partialRectangle;html=1;whiteSpace=wrap;connectable=0;strokeColor=inherit;overflow=hidden;fillColor=none;top=0;left=0;bottom=0;right=0;pointerEvents=1;" vertex="1" parent="HjpduZWSPB27V8v7-c5q-877">
          <mxGeometry x="2" width="3" height="4" as="geometry">
            <mxRectangle width="3" height="4" as="alternateBounds" />
          </mxGeometry>
        </mxCell>
        <mxCell id="HjpduZWSPB27V8v7-c5q-881" value="" style="shape=partialRectangle;html=1;whiteSpace=wrap;connectable=0;strokeColor=inherit;overflow=hidden;fillColor=none;top=0;left=0;bottom=0;right=0;pointerEvents=1;" vertex="1" parent="HjpduZWSPB27V8v7-c5q-877">
          <mxGeometry x="5" width="1" height="4" as="geometry">
            <mxRectangle width="1" height="4" as="alternateBounds" />
          </mxGeometry>
        </mxCell>
        <mxCell id="HjpduZWSPB27V8v7-c5q-882" value="" style="shape=partialRectangle;html=1;whiteSpace=wrap;connectable=0;strokeColor=inherit;overflow=hidden;fillColor=none;top=0;left=0;bottom=0;right=0;pointerEvents=1;" vertex="1" parent="HjpduZWSPB27V8v7-c5q-877">
          <mxGeometry x="6" width="2" height="4" as="geometry">
            <mxRectangle width="2" height="4" as="alternateBounds" />
          </mxGeometry>
        </mxCell>
        <mxCell id="HjpduZWSPB27V8v7-c5q-883" value="" style="shape=partialRectangle;html=1;whiteSpace=wrap;connectable=0;strokeColor=inherit;overflow=hidden;fillColor=none;top=0;left=0;bottom=0;right=0;pointerEvents=1;" vertex="1" parent="HjpduZWSPB27V8v7-c5q-877">
          <mxGeometry x="8" height="4" as="geometry">
            <mxRectangle height="4" as="alternateBounds" />
          </mxGeometry>
        </mxCell>
        <mxCell id="HjpduZWSPB27V8v7-c5q-884" value="" style="shape=partialRectangle;html=1;whiteSpace=wrap;connectable=0;strokeColor=inherit;overflow=hidden;fillColor=none;top=0;left=0;bottom=0;right=0;pointerEvents=1;" vertex="1" parent="HjpduZWSPB27V8v7-c5q-877">
          <mxGeometry x="8" width="3" height="4" as="geometry">
            <mxRectangle width="3" height="4" as="alternateBounds" />
          </mxGeometry>
        </mxCell>
        <mxCell id="HjpduZWSPB27V8v7-c5q-885" value="" style="shape=partialRectangle;html=1;whiteSpace=wrap;connectable=0;strokeColor=inherit;overflow=hidden;fillColor=none;top=0;left=0;bottom=0;right=0;pointerEvents=1;" vertex="1" parent="HjpduZWSPB27V8v7-c5q-877">
          <mxGeometry x="11" width="2" height="4" as="geometry">
            <mxRectangle width="2" height="4" as="alternateBounds" />
          </mxGeometry>
        </mxCell>
        <mxCell id="HjpduZWSPB27V8v7-c5q-886" value="" style="shape=partialRectangle;html=1;whiteSpace=wrap;connectable=0;strokeColor=inherit;overflow=hidden;fillColor=none;top=0;left=0;bottom=0;right=0;pointerEvents=1;" vertex="1" parent="HjpduZWSPB27V8v7-c5q-877">
          <mxGeometry x="13" width="1" height="4" as="geometry">
            <mxRectangle width="1" height="4" as="alternateBounds" />
          </mxGeometry>
        </mxCell>
        <mxCell id="HjpduZWSPB27V8v7-c5q-887" value="" style="shape=partialRectangle;html=1;whiteSpace=wrap;connectable=0;strokeColor=inherit;overflow=hidden;fillColor=none;top=0;left=0;bottom=0;right=0;pointerEvents=1;" vertex="1" parent="HjpduZWSPB27V8v7-c5q-877">
          <mxGeometry x="14" width="2" height="4" as="geometry">
            <mxRectangle width="2" height="4" as="alternateBounds" />
          </mxGeometry>
        </mxCell>
        <mxCell id="HjpduZWSPB27V8v7-c5q-888" value="" style="shape=partialRectangle;html=1;whiteSpace=wrap;connectable=0;strokeColor=inherit;overflow=hidden;fillColor=none;top=0;left=0;bottom=0;right=0;pointerEvents=1;" vertex="1" parent="HjpduZWSPB27V8v7-c5q-877">
          <mxGeometry x="16" width="1" height="4" as="geometry">
            <mxRectangle width="1" height="4" as="alternateBounds" />
          </mxGeometry>
        </mxCell>
        <mxCell id="HjpduZWSPB27V8v7-c5q-889" value="" style="shape=partialRectangle;html=1;whiteSpace=wrap;connectable=0;strokeColor=inherit;overflow=hidden;fillColor=none;top=0;left=0;bottom=0;right=0;pointerEvents=1;" vertex="1" parent="HjpduZWSPB27V8v7-c5q-877">
          <mxGeometry x="17" width="2" height="4" as="geometry">
            <mxRectangle width="2" height="4" as="alternateBounds" />
          </mxGeometry>
        </mxCell>
        <mxCell id="HjpduZWSPB27V8v7-c5q-890" value="" style="shape=partialRectangle;html=1;whiteSpace=wrap;connectable=0;strokeColor=inherit;overflow=hidden;fillColor=none;top=0;left=0;bottom=0;right=0;pointerEvents=1;" vertex="1" parent="HjpduZWSPB27V8v7-c5q-877">
          <mxGeometry x="19" width="1" height="4" as="geometry">
            <mxRectangle width="1" height="4" as="alternateBounds" />
          </mxGeometry>
        </mxCell>
        <mxCell id="HjpduZWSPB27V8v7-c5q-891" value="" style="shape=partialRectangle;html=1;whiteSpace=wrap;connectable=0;strokeColor=inherit;overflow=hidden;fillColor=none;top=0;left=0;bottom=0;right=0;pointerEvents=1;" vertex="1" parent="HjpduZWSPB27V8v7-c5q-877">
          <mxGeometry x="20" width="2" height="4" as="geometry">
            <mxRectangle width="2" height="4" as="alternateBounds" />
          </mxGeometry>
        </mxCell>
        <mxCell id="HjpduZWSPB27V8v7-c5q-892" value="" style="shape=partialRectangle;html=1;whiteSpace=wrap;connectable=0;strokeColor=inherit;overflow=hidden;fillColor=none;top=0;left=0;bottom=0;right=0;pointerEvents=1;" vertex="1" parent="HjpduZWSPB27V8v7-c5q-877">
          <mxGeometry x="22" width="1" height="4" as="geometry">
            <mxRectangle width="1" height="4" as="alternateBounds" />
          </mxGeometry>
        </mxCell>
        <mxCell id="HjpduZWSPB27V8v7-c5q-893" value="" style="shape=partialRectangle;html=1;whiteSpace=wrap;connectable=0;strokeColor=inherit;overflow=hidden;fillColor=none;top=0;left=0;bottom=0;right=0;pointerEvents=1;" vertex="1" parent="HjpduZWSPB27V8v7-c5q-877">
          <mxGeometry x="23" width="2" height="4" as="geometry">
            <mxRectangle width="2" height="4" as="alternateBounds" />
          </mxGeometry>
        </mxCell>
        <mxCell id="HjpduZWSPB27V8v7-c5q-894" value="" style="shape=tableRow;horizontal=0;startSize=0;swimlaneHead=0;swimlaneBody=0;strokeColor=inherit;top=0;left=0;bottom=0;right=0;collapsible=0;dropTarget=0;fillColor=none;points=[[0,0.5],[1,0.5]];portConstraint=eastwest;" vertex="1" parent="HjpduZWSPB27V8v7-c5q-876">
          <mxGeometry y="34" width="25" as="geometry" />
        </mxCell>
        <mxCell id="HjpduZWSPB27V8v7-c5q-895" value="" style="shape=partialRectangle;html=1;whiteSpace=wrap;connectable=0;strokeColor=inherit;overflow=hidden;fillColor=none;top=0;left=0;bottom=0;right=0;pointerEvents=1;" vertex="1" parent="HjpduZWSPB27V8v7-c5q-894">
          <mxGeometry width="2" as="geometry">
            <mxRectangle width="2" as="alternateBounds" />
          </mxGeometry>
        </mxCell>
        <mxCell id="HjpduZWSPB27V8v7-c5q-896" value="" style="shape=partialRectangle;html=1;whiteSpace=wrap;connectable=0;strokeColor=inherit;overflow=hidden;fillColor=none;top=0;left=0;bottom=0;right=0;pointerEvents=1;" vertex="1" parent="HjpduZWSPB27V8v7-c5q-894">
          <mxGeometry x="2" as="geometry">
            <mxRectangle as="alternateBounds" />
          </mxGeometry>
        </mxCell>
        <mxCell id="HjpduZWSPB27V8v7-c5q-897" value="" style="shape=partialRectangle;html=1;whiteSpace=wrap;connectable=0;strokeColor=inherit;overflow=hidden;fillColor=none;top=0;left=0;bottom=0;right=0;pointerEvents=1;" vertex="1" parent="HjpduZWSPB27V8v7-c5q-894">
          <mxGeometry x="2" width="3" as="geometry">
            <mxRectangle width="3" as="alternateBounds" />
          </mxGeometry>
        </mxCell>
        <mxCell id="HjpduZWSPB27V8v7-c5q-898" value="" style="shape=partialRectangle;html=1;whiteSpace=wrap;connectable=0;strokeColor=inherit;overflow=hidden;fillColor=none;top=0;left=0;bottom=0;right=0;pointerEvents=1;" vertex="1" parent="HjpduZWSPB27V8v7-c5q-894">
          <mxGeometry x="5" width="1" as="geometry">
            <mxRectangle width="1" as="alternateBounds" />
          </mxGeometry>
        </mxCell>
        <mxCell id="HjpduZWSPB27V8v7-c5q-899" value="" style="shape=partialRectangle;html=1;whiteSpace=wrap;connectable=0;strokeColor=inherit;overflow=hidden;fillColor=none;top=0;left=0;bottom=0;right=0;pointerEvents=1;" vertex="1" parent="HjpduZWSPB27V8v7-c5q-894">
          <mxGeometry x="6" width="2" as="geometry">
            <mxRectangle width="2" as="alternateBounds" />
          </mxGeometry>
        </mxCell>
        <mxCell id="HjpduZWSPB27V8v7-c5q-900" value="" style="shape=partialRectangle;html=1;whiteSpace=wrap;connectable=0;strokeColor=inherit;overflow=hidden;fillColor=none;top=0;left=0;bottom=0;right=0;pointerEvents=1;" vertex="1" parent="HjpduZWSPB27V8v7-c5q-894">
          <mxGeometry x="8" as="geometry">
            <mxRectangle as="alternateBounds" />
          </mxGeometry>
        </mxCell>
        <mxCell id="HjpduZWSPB27V8v7-c5q-901" value="" style="shape=partialRectangle;html=1;whiteSpace=wrap;connectable=0;strokeColor=inherit;overflow=hidden;fillColor=none;top=0;left=0;bottom=0;right=0;pointerEvents=1;" vertex="1" parent="HjpduZWSPB27V8v7-c5q-894">
          <mxGeometry x="8" width="3" as="geometry">
            <mxRectangle width="3" as="alternateBounds" />
          </mxGeometry>
        </mxCell>
        <mxCell id="HjpduZWSPB27V8v7-c5q-902" value="" style="shape=partialRectangle;html=1;whiteSpace=wrap;connectable=0;strokeColor=inherit;overflow=hidden;fillColor=none;top=0;left=0;bottom=0;right=0;pointerEvents=1;" vertex="1" parent="HjpduZWSPB27V8v7-c5q-894">
          <mxGeometry x="11" width="2" as="geometry">
            <mxRectangle width="2" as="alternateBounds" />
          </mxGeometry>
        </mxCell>
        <mxCell id="HjpduZWSPB27V8v7-c5q-903" value="" style="shape=partialRectangle;html=1;whiteSpace=wrap;connectable=0;strokeColor=inherit;overflow=hidden;fillColor=none;top=0;left=0;bottom=0;right=0;pointerEvents=1;" vertex="1" parent="HjpduZWSPB27V8v7-c5q-894">
          <mxGeometry x="13" width="1" as="geometry">
            <mxRectangle width="1" as="alternateBounds" />
          </mxGeometry>
        </mxCell>
        <mxCell id="HjpduZWSPB27V8v7-c5q-904" value="" style="shape=partialRectangle;html=1;whiteSpace=wrap;connectable=0;strokeColor=inherit;overflow=hidden;fillColor=none;top=0;left=0;bottom=0;right=0;pointerEvents=1;" vertex="1" parent="HjpduZWSPB27V8v7-c5q-894">
          <mxGeometry x="14" width="2" as="geometry">
            <mxRectangle width="2" as="alternateBounds" />
          </mxGeometry>
        </mxCell>
        <mxCell id="HjpduZWSPB27V8v7-c5q-905" value="" style="shape=partialRectangle;html=1;whiteSpace=wrap;connectable=0;strokeColor=inherit;overflow=hidden;fillColor=none;top=0;left=0;bottom=0;right=0;pointerEvents=1;" vertex="1" parent="HjpduZWSPB27V8v7-c5q-894">
          <mxGeometry x="16" width="1" as="geometry">
            <mxRectangle width="1" as="alternateBounds" />
          </mxGeometry>
        </mxCell>
        <mxCell id="HjpduZWSPB27V8v7-c5q-906" value="" style="shape=partialRectangle;html=1;whiteSpace=wrap;connectable=0;strokeColor=inherit;overflow=hidden;fillColor=none;top=0;left=0;bottom=0;right=0;pointerEvents=1;" vertex="1" parent="HjpduZWSPB27V8v7-c5q-894">
          <mxGeometry x="17" width="2" as="geometry">
            <mxRectangle width="2" as="alternateBounds" />
          </mxGeometry>
        </mxCell>
        <mxCell id="HjpduZWSPB27V8v7-c5q-907" value="" style="shape=partialRectangle;html=1;whiteSpace=wrap;connectable=0;strokeColor=inherit;overflow=hidden;fillColor=none;top=0;left=0;bottom=0;right=0;pointerEvents=1;" vertex="1" parent="HjpduZWSPB27V8v7-c5q-894">
          <mxGeometry x="19" width="1" as="geometry">
            <mxRectangle width="1" as="alternateBounds" />
          </mxGeometry>
        </mxCell>
        <mxCell id="HjpduZWSPB27V8v7-c5q-908" value="" style="shape=partialRectangle;html=1;whiteSpace=wrap;connectable=0;strokeColor=inherit;overflow=hidden;fillColor=none;top=0;left=0;bottom=0;right=0;pointerEvents=1;" vertex="1" parent="HjpduZWSPB27V8v7-c5q-894">
          <mxGeometry x="20" width="2" as="geometry">
            <mxRectangle width="2" as="alternateBounds" />
          </mxGeometry>
        </mxCell>
        <mxCell id="HjpduZWSPB27V8v7-c5q-909" value="" style="shape=partialRectangle;html=1;whiteSpace=wrap;connectable=0;strokeColor=inherit;overflow=hidden;fillColor=none;top=0;left=0;bottom=0;right=0;pointerEvents=1;" vertex="1" parent="HjpduZWSPB27V8v7-c5q-894">
          <mxGeometry x="22" width="1" as="geometry">
            <mxRectangle width="1" as="alternateBounds" />
          </mxGeometry>
        </mxCell>
        <mxCell id="HjpduZWSPB27V8v7-c5q-910" value="" style="shape=partialRectangle;html=1;whiteSpace=wrap;connectable=0;strokeColor=inherit;overflow=hidden;fillColor=none;top=0;left=0;bottom=0;right=0;pointerEvents=1;" vertex="1" parent="HjpduZWSPB27V8v7-c5q-894">
          <mxGeometry x="23" width="2" as="geometry">
            <mxRectangle width="2" as="alternateBounds" />
          </mxGeometry>
        </mxCell>
        <mxCell id="HjpduZWSPB27V8v7-c5q-911" value="" style="shape=tableRow;horizontal=0;startSize=0;swimlaneHead=0;swimlaneBody=0;strokeColor=inherit;top=0;left=0;bottom=0;right=0;collapsible=0;dropTarget=0;fillColor=none;points=[[0,0.5],[1,0.5]];portConstraint=eastwest;" vertex="1" parent="HjpduZWSPB27V8v7-c5q-876">
          <mxGeometry y="34" width="25" as="geometry" />
        </mxCell>
        <mxCell id="HjpduZWSPB27V8v7-c5q-912" value="" style="shape=partialRectangle;html=1;whiteSpace=wrap;connectable=0;strokeColor=inherit;overflow=hidden;fillColor=none;top=0;left=0;bottom=0;right=0;pointerEvents=1;" vertex="1" parent="HjpduZWSPB27V8v7-c5q-911">
          <mxGeometry width="2" as="geometry">
            <mxRectangle width="2" as="alternateBounds" />
          </mxGeometry>
        </mxCell>
        <mxCell id="HjpduZWSPB27V8v7-c5q-913" value="" style="shape=partialRectangle;html=1;whiteSpace=wrap;connectable=0;strokeColor=inherit;overflow=hidden;fillColor=none;top=0;left=0;bottom=0;right=0;pointerEvents=1;" vertex="1" parent="HjpduZWSPB27V8v7-c5q-911">
          <mxGeometry x="2" as="geometry">
            <mxRectangle as="alternateBounds" />
          </mxGeometry>
        </mxCell>
        <mxCell id="HjpduZWSPB27V8v7-c5q-914" value="" style="shape=partialRectangle;html=1;whiteSpace=wrap;connectable=0;strokeColor=inherit;overflow=hidden;fillColor=none;top=0;left=0;bottom=0;right=0;pointerEvents=1;" vertex="1" parent="HjpduZWSPB27V8v7-c5q-911">
          <mxGeometry x="2" width="3" as="geometry">
            <mxRectangle width="3" as="alternateBounds" />
          </mxGeometry>
        </mxCell>
        <mxCell id="HjpduZWSPB27V8v7-c5q-915" value="" style="shape=partialRectangle;html=1;whiteSpace=wrap;connectable=0;strokeColor=inherit;overflow=hidden;fillColor=none;top=0;left=0;bottom=0;right=0;pointerEvents=1;" vertex="1" parent="HjpduZWSPB27V8v7-c5q-911">
          <mxGeometry x="5" width="1" as="geometry">
            <mxRectangle width="1" as="alternateBounds" />
          </mxGeometry>
        </mxCell>
        <mxCell id="HjpduZWSPB27V8v7-c5q-916" value="" style="shape=partialRectangle;html=1;whiteSpace=wrap;connectable=0;strokeColor=inherit;overflow=hidden;fillColor=none;top=0;left=0;bottom=0;right=0;pointerEvents=1;" vertex="1" parent="HjpduZWSPB27V8v7-c5q-911">
          <mxGeometry x="6" width="2" as="geometry">
            <mxRectangle width="2" as="alternateBounds" />
          </mxGeometry>
        </mxCell>
        <mxCell id="HjpduZWSPB27V8v7-c5q-917" value="" style="shape=partialRectangle;html=1;whiteSpace=wrap;connectable=0;strokeColor=inherit;overflow=hidden;fillColor=none;top=0;left=0;bottom=0;right=0;pointerEvents=1;" vertex="1" parent="HjpduZWSPB27V8v7-c5q-911">
          <mxGeometry x="8" as="geometry">
            <mxRectangle as="alternateBounds" />
          </mxGeometry>
        </mxCell>
        <mxCell id="HjpduZWSPB27V8v7-c5q-918" value="" style="shape=partialRectangle;html=1;whiteSpace=wrap;connectable=0;strokeColor=inherit;overflow=hidden;fillColor=none;top=0;left=0;bottom=0;right=0;pointerEvents=1;" vertex="1" parent="HjpduZWSPB27V8v7-c5q-911">
          <mxGeometry x="8" width="3" as="geometry">
            <mxRectangle width="3" as="alternateBounds" />
          </mxGeometry>
        </mxCell>
        <mxCell id="HjpduZWSPB27V8v7-c5q-919" value="" style="shape=partialRectangle;html=1;whiteSpace=wrap;connectable=0;strokeColor=inherit;overflow=hidden;fillColor=none;top=0;left=0;bottom=0;right=0;pointerEvents=1;" vertex="1" parent="HjpduZWSPB27V8v7-c5q-911">
          <mxGeometry x="11" width="2" as="geometry">
            <mxRectangle width="2" as="alternateBounds" />
          </mxGeometry>
        </mxCell>
        <mxCell id="HjpduZWSPB27V8v7-c5q-920" value="" style="shape=partialRectangle;html=1;whiteSpace=wrap;connectable=0;strokeColor=inherit;overflow=hidden;fillColor=none;top=0;left=0;bottom=0;right=0;pointerEvents=1;" vertex="1" parent="HjpduZWSPB27V8v7-c5q-911">
          <mxGeometry x="13" width="1" as="geometry">
            <mxRectangle width="1" as="alternateBounds" />
          </mxGeometry>
        </mxCell>
        <mxCell id="HjpduZWSPB27V8v7-c5q-921" value="" style="shape=partialRectangle;html=1;whiteSpace=wrap;connectable=0;strokeColor=inherit;overflow=hidden;fillColor=none;top=0;left=0;bottom=0;right=0;pointerEvents=1;" vertex="1" parent="HjpduZWSPB27V8v7-c5q-911">
          <mxGeometry x="14" width="2" as="geometry">
            <mxRectangle width="2" as="alternateBounds" />
          </mxGeometry>
        </mxCell>
        <mxCell id="HjpduZWSPB27V8v7-c5q-922" value="" style="shape=partialRectangle;html=1;whiteSpace=wrap;connectable=0;strokeColor=inherit;overflow=hidden;fillColor=none;top=0;left=0;bottom=0;right=0;pointerEvents=1;" vertex="1" parent="HjpduZWSPB27V8v7-c5q-911">
          <mxGeometry x="16" width="1" as="geometry">
            <mxRectangle width="1" as="alternateBounds" />
          </mxGeometry>
        </mxCell>
        <mxCell id="HjpduZWSPB27V8v7-c5q-923" value="" style="shape=partialRectangle;html=1;whiteSpace=wrap;connectable=0;strokeColor=inherit;overflow=hidden;fillColor=none;top=0;left=0;bottom=0;right=0;pointerEvents=1;" vertex="1" parent="HjpduZWSPB27V8v7-c5q-911">
          <mxGeometry x="17" width="2" as="geometry">
            <mxRectangle width="2" as="alternateBounds" />
          </mxGeometry>
        </mxCell>
        <mxCell id="HjpduZWSPB27V8v7-c5q-924" value="" style="shape=partialRectangle;html=1;whiteSpace=wrap;connectable=0;strokeColor=inherit;overflow=hidden;fillColor=none;top=0;left=0;bottom=0;right=0;pointerEvents=1;" vertex="1" parent="HjpduZWSPB27V8v7-c5q-911">
          <mxGeometry x="19" width="1" as="geometry">
            <mxRectangle width="1" as="alternateBounds" />
          </mxGeometry>
        </mxCell>
        <mxCell id="HjpduZWSPB27V8v7-c5q-925" value="" style="shape=partialRectangle;html=1;whiteSpace=wrap;connectable=0;strokeColor=inherit;overflow=hidden;fillColor=none;top=0;left=0;bottom=0;right=0;pointerEvents=1;" vertex="1" parent="HjpduZWSPB27V8v7-c5q-911">
          <mxGeometry x="20" width="2" as="geometry">
            <mxRectangle width="2" as="alternateBounds" />
          </mxGeometry>
        </mxCell>
        <mxCell id="HjpduZWSPB27V8v7-c5q-926" value="" style="shape=partialRectangle;html=1;whiteSpace=wrap;connectable=0;strokeColor=inherit;overflow=hidden;fillColor=none;top=0;left=0;bottom=0;right=0;pointerEvents=1;" vertex="1" parent="HjpduZWSPB27V8v7-c5q-911">
          <mxGeometry x="22" width="1" as="geometry">
            <mxRectangle width="1" as="alternateBounds" />
          </mxGeometry>
        </mxCell>
        <mxCell id="HjpduZWSPB27V8v7-c5q-927" value="" style="shape=partialRectangle;html=1;whiteSpace=wrap;connectable=0;strokeColor=inherit;overflow=hidden;fillColor=none;top=0;left=0;bottom=0;right=0;pointerEvents=1;" vertex="1" parent="HjpduZWSPB27V8v7-c5q-911">
          <mxGeometry x="23" width="2" as="geometry">
            <mxRectangle width="2" as="alternateBounds" />
          </mxGeometry>
        </mxCell>
        <mxCell id="HjpduZWSPB27V8v7-c5q-928" value="" style="shape=tableRow;horizontal=0;startSize=0;swimlaneHead=0;swimlaneBody=0;strokeColor=inherit;top=0;left=0;bottom=0;right=0;collapsible=0;dropTarget=0;fillColor=none;points=[[0,0.5],[1,0.5]];portConstraint=eastwest;" vertex="1" parent="HjpduZWSPB27V8v7-c5q-876">
          <mxGeometry y="34" width="25" height="1" as="geometry" />
        </mxCell>
        <mxCell id="HjpduZWSPB27V8v7-c5q-929" value="" style="shape=partialRectangle;html=1;whiteSpace=wrap;connectable=0;strokeColor=inherit;overflow=hidden;fillColor=none;top=0;left=0;bottom=0;right=0;pointerEvents=1;" vertex="1" parent="HjpduZWSPB27V8v7-c5q-928">
          <mxGeometry width="2" height="1" as="geometry">
            <mxRectangle width="2" height="1" as="alternateBounds" />
          </mxGeometry>
        </mxCell>
        <mxCell id="HjpduZWSPB27V8v7-c5q-930" value="" style="shape=partialRectangle;html=1;whiteSpace=wrap;connectable=0;strokeColor=inherit;overflow=hidden;fillColor=none;top=0;left=0;bottom=0;right=0;pointerEvents=1;" vertex="1" parent="HjpduZWSPB27V8v7-c5q-928">
          <mxGeometry x="2" height="1" as="geometry">
            <mxRectangle height="1" as="alternateBounds" />
          </mxGeometry>
        </mxCell>
        <mxCell id="HjpduZWSPB27V8v7-c5q-931" value="" style="shape=partialRectangle;html=1;whiteSpace=wrap;connectable=0;strokeColor=inherit;overflow=hidden;fillColor=none;top=0;left=0;bottom=0;right=0;pointerEvents=1;" vertex="1" parent="HjpduZWSPB27V8v7-c5q-928">
          <mxGeometry x="2" width="3" height="1" as="geometry">
            <mxRectangle width="3" height="1" as="alternateBounds" />
          </mxGeometry>
        </mxCell>
        <mxCell id="HjpduZWSPB27V8v7-c5q-932" value="" style="shape=partialRectangle;html=1;whiteSpace=wrap;connectable=0;strokeColor=inherit;overflow=hidden;fillColor=none;top=0;left=0;bottom=0;right=0;pointerEvents=1;" vertex="1" parent="HjpduZWSPB27V8v7-c5q-928">
          <mxGeometry x="5" width="1" height="1" as="geometry">
            <mxRectangle width="1" height="1" as="alternateBounds" />
          </mxGeometry>
        </mxCell>
        <mxCell id="HjpduZWSPB27V8v7-c5q-933" value="" style="shape=partialRectangle;html=1;whiteSpace=wrap;connectable=0;strokeColor=inherit;overflow=hidden;fillColor=none;top=0;left=0;bottom=0;right=0;pointerEvents=1;" vertex="1" parent="HjpduZWSPB27V8v7-c5q-928">
          <mxGeometry x="6" width="2" height="1" as="geometry">
            <mxRectangle width="2" height="1" as="alternateBounds" />
          </mxGeometry>
        </mxCell>
        <mxCell id="HjpduZWSPB27V8v7-c5q-934" value="" style="shape=partialRectangle;html=1;whiteSpace=wrap;connectable=0;strokeColor=inherit;overflow=hidden;fillColor=none;top=0;left=0;bottom=0;right=0;pointerEvents=1;" vertex="1" parent="HjpduZWSPB27V8v7-c5q-928">
          <mxGeometry x="8" height="1" as="geometry">
            <mxRectangle height="1" as="alternateBounds" />
          </mxGeometry>
        </mxCell>
        <mxCell id="HjpduZWSPB27V8v7-c5q-935" value="" style="shape=partialRectangle;html=1;whiteSpace=wrap;connectable=0;strokeColor=inherit;overflow=hidden;fillColor=none;top=0;left=0;bottom=0;right=0;pointerEvents=1;" vertex="1" parent="HjpduZWSPB27V8v7-c5q-928">
          <mxGeometry x="8" width="3" height="1" as="geometry">
            <mxRectangle width="3" height="1" as="alternateBounds" />
          </mxGeometry>
        </mxCell>
        <mxCell id="HjpduZWSPB27V8v7-c5q-936" value="" style="shape=partialRectangle;html=1;whiteSpace=wrap;connectable=0;strokeColor=inherit;overflow=hidden;fillColor=none;top=0;left=0;bottom=0;right=0;pointerEvents=1;" vertex="1" parent="HjpduZWSPB27V8v7-c5q-928">
          <mxGeometry x="11" width="2" height="1" as="geometry">
            <mxRectangle width="2" height="1" as="alternateBounds" />
          </mxGeometry>
        </mxCell>
        <mxCell id="HjpduZWSPB27V8v7-c5q-937" value="" style="shape=partialRectangle;html=1;whiteSpace=wrap;connectable=0;strokeColor=inherit;overflow=hidden;fillColor=none;top=0;left=0;bottom=0;right=0;pointerEvents=1;" vertex="1" parent="HjpduZWSPB27V8v7-c5q-928">
          <mxGeometry x="13" width="1" height="1" as="geometry">
            <mxRectangle width="1" height="1" as="alternateBounds" />
          </mxGeometry>
        </mxCell>
        <mxCell id="HjpduZWSPB27V8v7-c5q-938" value="" style="shape=partialRectangle;html=1;whiteSpace=wrap;connectable=0;strokeColor=inherit;overflow=hidden;fillColor=none;top=0;left=0;bottom=0;right=0;pointerEvents=1;" vertex="1" parent="HjpduZWSPB27V8v7-c5q-928">
          <mxGeometry x="14" width="2" height="1" as="geometry">
            <mxRectangle width="2" height="1" as="alternateBounds" />
          </mxGeometry>
        </mxCell>
        <mxCell id="HjpduZWSPB27V8v7-c5q-939" value="" style="shape=partialRectangle;html=1;whiteSpace=wrap;connectable=0;strokeColor=inherit;overflow=hidden;fillColor=none;top=0;left=0;bottom=0;right=0;pointerEvents=1;" vertex="1" parent="HjpduZWSPB27V8v7-c5q-928">
          <mxGeometry x="16" width="1" height="1" as="geometry">
            <mxRectangle width="1" height="1" as="alternateBounds" />
          </mxGeometry>
        </mxCell>
        <mxCell id="HjpduZWSPB27V8v7-c5q-940" value="" style="shape=partialRectangle;html=1;whiteSpace=wrap;connectable=0;strokeColor=inherit;overflow=hidden;fillColor=none;top=0;left=0;bottom=0;right=0;pointerEvents=1;" vertex="1" parent="HjpduZWSPB27V8v7-c5q-928">
          <mxGeometry x="17" width="2" height="1" as="geometry">
            <mxRectangle width="2" height="1" as="alternateBounds" />
          </mxGeometry>
        </mxCell>
        <mxCell id="HjpduZWSPB27V8v7-c5q-941" value="" style="shape=partialRectangle;html=1;whiteSpace=wrap;connectable=0;strokeColor=inherit;overflow=hidden;fillColor=none;top=0;left=0;bottom=0;right=0;pointerEvents=1;" vertex="1" parent="HjpduZWSPB27V8v7-c5q-928">
          <mxGeometry x="19" width="1" height="1" as="geometry">
            <mxRectangle width="1" height="1" as="alternateBounds" />
          </mxGeometry>
        </mxCell>
        <mxCell id="HjpduZWSPB27V8v7-c5q-942" value="" style="shape=partialRectangle;html=1;whiteSpace=wrap;connectable=0;strokeColor=inherit;overflow=hidden;fillColor=none;top=0;left=0;bottom=0;right=0;pointerEvents=1;" vertex="1" parent="HjpduZWSPB27V8v7-c5q-928">
          <mxGeometry x="20" width="2" height="1" as="geometry">
            <mxRectangle width="2" height="1" as="alternateBounds" />
          </mxGeometry>
        </mxCell>
        <mxCell id="HjpduZWSPB27V8v7-c5q-943" value="" style="shape=partialRectangle;html=1;whiteSpace=wrap;connectable=0;strokeColor=inherit;overflow=hidden;fillColor=none;top=0;left=0;bottom=0;right=0;pointerEvents=1;" vertex="1" parent="HjpduZWSPB27V8v7-c5q-928">
          <mxGeometry x="22" width="1" height="1" as="geometry">
            <mxRectangle width="1" height="1" as="alternateBounds" />
          </mxGeometry>
        </mxCell>
        <mxCell id="HjpduZWSPB27V8v7-c5q-944" value="" style="shape=partialRectangle;html=1;whiteSpace=wrap;connectable=0;strokeColor=inherit;overflow=hidden;fillColor=none;top=0;left=0;bottom=0;right=0;pointerEvents=1;" vertex="1" parent="HjpduZWSPB27V8v7-c5q-928">
          <mxGeometry x="23" width="2" height="1" as="geometry">
            <mxRectangle width="2" height="1" as="alternateBounds" />
          </mxGeometry>
        </mxCell>
        <mxCell id="HjpduZWSPB27V8v7-c5q-945" value="" style="shape=tableRow;horizontal=0;startSize=0;swimlaneHead=0;swimlaneBody=0;strokeColor=inherit;top=0;left=0;bottom=0;right=0;collapsible=0;dropTarget=0;fillColor=none;points=[[0,0.5],[1,0.5]];portConstraint=eastwest;" vertex="1" parent="HjpduZWSPB27V8v7-c5q-876">
          <mxGeometry y="35" width="25" as="geometry" />
        </mxCell>
        <mxCell id="HjpduZWSPB27V8v7-c5q-946" value="" style="shape=partialRectangle;html=1;whiteSpace=wrap;connectable=0;strokeColor=inherit;overflow=hidden;fillColor=none;top=0;left=0;bottom=0;right=0;pointerEvents=1;" vertex="1" parent="HjpduZWSPB27V8v7-c5q-945">
          <mxGeometry width="2" as="geometry">
            <mxRectangle width="2" as="alternateBounds" />
          </mxGeometry>
        </mxCell>
        <mxCell id="HjpduZWSPB27V8v7-c5q-947" value="" style="shape=partialRectangle;html=1;whiteSpace=wrap;connectable=0;strokeColor=inherit;overflow=hidden;fillColor=none;top=0;left=0;bottom=0;right=0;pointerEvents=1;" vertex="1" parent="HjpduZWSPB27V8v7-c5q-945">
          <mxGeometry x="2" as="geometry">
            <mxRectangle as="alternateBounds" />
          </mxGeometry>
        </mxCell>
        <mxCell id="HjpduZWSPB27V8v7-c5q-948" value="" style="shape=partialRectangle;html=1;whiteSpace=wrap;connectable=0;strokeColor=inherit;overflow=hidden;fillColor=none;top=0;left=0;bottom=0;right=0;pointerEvents=1;" vertex="1" parent="HjpduZWSPB27V8v7-c5q-945">
          <mxGeometry x="2" width="3" as="geometry">
            <mxRectangle width="3" as="alternateBounds" />
          </mxGeometry>
        </mxCell>
        <mxCell id="HjpduZWSPB27V8v7-c5q-949" value="" style="shape=partialRectangle;html=1;whiteSpace=wrap;connectable=0;strokeColor=inherit;overflow=hidden;fillColor=none;top=0;left=0;bottom=0;right=0;pointerEvents=1;" vertex="1" parent="HjpduZWSPB27V8v7-c5q-945">
          <mxGeometry x="5" width="1" as="geometry">
            <mxRectangle width="1" as="alternateBounds" />
          </mxGeometry>
        </mxCell>
        <mxCell id="HjpduZWSPB27V8v7-c5q-950" value="" style="shape=partialRectangle;html=1;whiteSpace=wrap;connectable=0;strokeColor=inherit;overflow=hidden;fillColor=none;top=0;left=0;bottom=0;right=0;pointerEvents=1;" vertex="1" parent="HjpduZWSPB27V8v7-c5q-945">
          <mxGeometry x="6" width="2" as="geometry">
            <mxRectangle width="2" as="alternateBounds" />
          </mxGeometry>
        </mxCell>
        <mxCell id="HjpduZWSPB27V8v7-c5q-951" value="" style="shape=partialRectangle;html=1;whiteSpace=wrap;connectable=0;strokeColor=inherit;overflow=hidden;fillColor=none;top=0;left=0;bottom=0;right=0;pointerEvents=1;" vertex="1" parent="HjpduZWSPB27V8v7-c5q-945">
          <mxGeometry x="8" as="geometry">
            <mxRectangle as="alternateBounds" />
          </mxGeometry>
        </mxCell>
        <mxCell id="HjpduZWSPB27V8v7-c5q-952" value="" style="shape=partialRectangle;html=1;whiteSpace=wrap;connectable=0;strokeColor=inherit;overflow=hidden;fillColor=none;top=0;left=0;bottom=0;right=0;pointerEvents=1;" vertex="1" parent="HjpduZWSPB27V8v7-c5q-945">
          <mxGeometry x="8" width="3" as="geometry">
            <mxRectangle width="3" as="alternateBounds" />
          </mxGeometry>
        </mxCell>
        <mxCell id="HjpduZWSPB27V8v7-c5q-953" value="" style="shape=partialRectangle;html=1;whiteSpace=wrap;connectable=0;strokeColor=inherit;overflow=hidden;fillColor=none;top=0;left=0;bottom=0;right=0;pointerEvents=1;" vertex="1" parent="HjpduZWSPB27V8v7-c5q-945">
          <mxGeometry x="11" width="2" as="geometry">
            <mxRectangle width="2" as="alternateBounds" />
          </mxGeometry>
        </mxCell>
        <mxCell id="HjpduZWSPB27V8v7-c5q-954" value="" style="shape=partialRectangle;html=1;whiteSpace=wrap;connectable=0;strokeColor=inherit;overflow=hidden;fillColor=none;top=0;left=0;bottom=0;right=0;pointerEvents=1;" vertex="1" parent="HjpduZWSPB27V8v7-c5q-945">
          <mxGeometry x="13" width="1" as="geometry">
            <mxRectangle width="1" as="alternateBounds" />
          </mxGeometry>
        </mxCell>
        <mxCell id="HjpduZWSPB27V8v7-c5q-955" value="" style="shape=partialRectangle;html=1;whiteSpace=wrap;connectable=0;strokeColor=inherit;overflow=hidden;fillColor=none;top=0;left=0;bottom=0;right=0;pointerEvents=1;" vertex="1" parent="HjpduZWSPB27V8v7-c5q-945">
          <mxGeometry x="14" width="2" as="geometry">
            <mxRectangle width="2" as="alternateBounds" />
          </mxGeometry>
        </mxCell>
        <mxCell id="HjpduZWSPB27V8v7-c5q-956" value="" style="shape=partialRectangle;html=1;whiteSpace=wrap;connectable=0;strokeColor=inherit;overflow=hidden;fillColor=none;top=0;left=0;bottom=0;right=0;pointerEvents=1;" vertex="1" parent="HjpduZWSPB27V8v7-c5q-945">
          <mxGeometry x="16" width="1" as="geometry">
            <mxRectangle width="1" as="alternateBounds" />
          </mxGeometry>
        </mxCell>
        <mxCell id="HjpduZWSPB27V8v7-c5q-957" value="" style="shape=partialRectangle;html=1;whiteSpace=wrap;connectable=0;strokeColor=inherit;overflow=hidden;fillColor=none;top=0;left=0;bottom=0;right=0;pointerEvents=1;" vertex="1" parent="HjpduZWSPB27V8v7-c5q-945">
          <mxGeometry x="17" width="2" as="geometry">
            <mxRectangle width="2" as="alternateBounds" />
          </mxGeometry>
        </mxCell>
        <mxCell id="HjpduZWSPB27V8v7-c5q-958" value="" style="shape=partialRectangle;html=1;whiteSpace=wrap;connectable=0;strokeColor=inherit;overflow=hidden;fillColor=none;top=0;left=0;bottom=0;right=0;pointerEvents=1;" vertex="1" parent="HjpduZWSPB27V8v7-c5q-945">
          <mxGeometry x="19" width="1" as="geometry">
            <mxRectangle width="1" as="alternateBounds" />
          </mxGeometry>
        </mxCell>
        <mxCell id="HjpduZWSPB27V8v7-c5q-959" value="" style="shape=partialRectangle;html=1;whiteSpace=wrap;connectable=0;strokeColor=inherit;overflow=hidden;fillColor=none;top=0;left=0;bottom=0;right=0;pointerEvents=1;" vertex="1" parent="HjpduZWSPB27V8v7-c5q-945">
          <mxGeometry x="20" width="2" as="geometry">
            <mxRectangle width="2" as="alternateBounds" />
          </mxGeometry>
        </mxCell>
        <mxCell id="HjpduZWSPB27V8v7-c5q-960" value="" style="shape=partialRectangle;html=1;whiteSpace=wrap;connectable=0;strokeColor=inherit;overflow=hidden;fillColor=none;top=0;left=0;bottom=0;right=0;pointerEvents=1;" vertex="1" parent="HjpduZWSPB27V8v7-c5q-945">
          <mxGeometry x="22" width="1" as="geometry">
            <mxRectangle width="1" as="alternateBounds" />
          </mxGeometry>
        </mxCell>
        <mxCell id="HjpduZWSPB27V8v7-c5q-961" value="" style="shape=partialRectangle;html=1;whiteSpace=wrap;connectable=0;strokeColor=inherit;overflow=hidden;fillColor=none;top=0;left=0;bottom=0;right=0;pointerEvents=1;" vertex="1" parent="HjpduZWSPB27V8v7-c5q-945">
          <mxGeometry x="23" width="2" as="geometry">
            <mxRectangle width="2" as="alternateBounds" />
          </mxGeometry>
        </mxCell>
        <mxCell id="HjpduZWSPB27V8v7-c5q-962" value="" style="shape=tableRow;horizontal=0;startSize=0;swimlaneHead=0;swimlaneBody=0;strokeColor=inherit;top=0;left=0;bottom=0;right=0;collapsible=0;dropTarget=0;fillColor=none;points=[[0,0.5],[1,0.5]];portConstraint=eastwest;" vertex="1" parent="HjpduZWSPB27V8v7-c5q-876">
          <mxGeometry y="35" width="25" as="geometry" />
        </mxCell>
        <mxCell id="HjpduZWSPB27V8v7-c5q-963" value="" style="shape=partialRectangle;html=1;whiteSpace=wrap;connectable=0;strokeColor=inherit;overflow=hidden;fillColor=none;top=0;left=0;bottom=0;right=0;pointerEvents=1;" vertex="1" parent="HjpduZWSPB27V8v7-c5q-962">
          <mxGeometry width="2" as="geometry">
            <mxRectangle width="2" as="alternateBounds" />
          </mxGeometry>
        </mxCell>
        <mxCell id="HjpduZWSPB27V8v7-c5q-964" value="" style="shape=partialRectangle;html=1;whiteSpace=wrap;connectable=0;strokeColor=inherit;overflow=hidden;fillColor=none;top=0;left=0;bottom=0;right=0;pointerEvents=1;" vertex="1" parent="HjpduZWSPB27V8v7-c5q-962">
          <mxGeometry x="2" as="geometry">
            <mxRectangle as="alternateBounds" />
          </mxGeometry>
        </mxCell>
        <mxCell id="HjpduZWSPB27V8v7-c5q-965" value="" style="shape=partialRectangle;html=1;whiteSpace=wrap;connectable=0;strokeColor=inherit;overflow=hidden;fillColor=none;top=0;left=0;bottom=0;right=0;pointerEvents=1;" vertex="1" parent="HjpduZWSPB27V8v7-c5q-962">
          <mxGeometry x="2" width="3" as="geometry">
            <mxRectangle width="3" as="alternateBounds" />
          </mxGeometry>
        </mxCell>
        <mxCell id="HjpduZWSPB27V8v7-c5q-966" value="" style="shape=partialRectangle;html=1;whiteSpace=wrap;connectable=0;strokeColor=inherit;overflow=hidden;fillColor=none;top=0;left=0;bottom=0;right=0;pointerEvents=1;" vertex="1" parent="HjpduZWSPB27V8v7-c5q-962">
          <mxGeometry x="5" width="1" as="geometry">
            <mxRectangle width="1" as="alternateBounds" />
          </mxGeometry>
        </mxCell>
        <mxCell id="HjpduZWSPB27V8v7-c5q-967" value="" style="shape=partialRectangle;html=1;whiteSpace=wrap;connectable=0;strokeColor=inherit;overflow=hidden;fillColor=none;top=0;left=0;bottom=0;right=0;pointerEvents=1;" vertex="1" parent="HjpduZWSPB27V8v7-c5q-962">
          <mxGeometry x="6" width="2" as="geometry">
            <mxRectangle width="2" as="alternateBounds" />
          </mxGeometry>
        </mxCell>
        <mxCell id="HjpduZWSPB27V8v7-c5q-968" value="" style="shape=partialRectangle;html=1;whiteSpace=wrap;connectable=0;strokeColor=inherit;overflow=hidden;fillColor=none;top=0;left=0;bottom=0;right=0;pointerEvents=1;" vertex="1" parent="HjpduZWSPB27V8v7-c5q-962">
          <mxGeometry x="8" as="geometry">
            <mxRectangle as="alternateBounds" />
          </mxGeometry>
        </mxCell>
        <mxCell id="HjpduZWSPB27V8v7-c5q-969" value="" style="shape=partialRectangle;html=1;whiteSpace=wrap;connectable=0;strokeColor=inherit;overflow=hidden;fillColor=none;top=0;left=0;bottom=0;right=0;pointerEvents=1;" vertex="1" parent="HjpduZWSPB27V8v7-c5q-962">
          <mxGeometry x="8" width="3" as="geometry">
            <mxRectangle width="3" as="alternateBounds" />
          </mxGeometry>
        </mxCell>
        <mxCell id="HjpduZWSPB27V8v7-c5q-970" value="" style="shape=partialRectangle;html=1;whiteSpace=wrap;connectable=0;strokeColor=inherit;overflow=hidden;fillColor=none;top=0;left=0;bottom=0;right=0;pointerEvents=1;" vertex="1" parent="HjpduZWSPB27V8v7-c5q-962">
          <mxGeometry x="11" width="2" as="geometry">
            <mxRectangle width="2" as="alternateBounds" />
          </mxGeometry>
        </mxCell>
        <mxCell id="HjpduZWSPB27V8v7-c5q-971" value="" style="shape=partialRectangle;html=1;whiteSpace=wrap;connectable=0;strokeColor=inherit;overflow=hidden;fillColor=none;top=0;left=0;bottom=0;right=0;pointerEvents=1;" vertex="1" parent="HjpduZWSPB27V8v7-c5q-962">
          <mxGeometry x="13" width="1" as="geometry">
            <mxRectangle width="1" as="alternateBounds" />
          </mxGeometry>
        </mxCell>
        <mxCell id="HjpduZWSPB27V8v7-c5q-972" value="" style="shape=partialRectangle;html=1;whiteSpace=wrap;connectable=0;strokeColor=inherit;overflow=hidden;fillColor=none;top=0;left=0;bottom=0;right=0;pointerEvents=1;" vertex="1" parent="HjpduZWSPB27V8v7-c5q-962">
          <mxGeometry x="14" width="2" as="geometry">
            <mxRectangle width="2" as="alternateBounds" />
          </mxGeometry>
        </mxCell>
        <mxCell id="HjpduZWSPB27V8v7-c5q-973" value="" style="shape=partialRectangle;html=1;whiteSpace=wrap;connectable=0;strokeColor=inherit;overflow=hidden;fillColor=none;top=0;left=0;bottom=0;right=0;pointerEvents=1;" vertex="1" parent="HjpduZWSPB27V8v7-c5q-962">
          <mxGeometry x="16" width="1" as="geometry">
            <mxRectangle width="1" as="alternateBounds" />
          </mxGeometry>
        </mxCell>
        <mxCell id="HjpduZWSPB27V8v7-c5q-974" value="" style="shape=partialRectangle;html=1;whiteSpace=wrap;connectable=0;strokeColor=inherit;overflow=hidden;fillColor=none;top=0;left=0;bottom=0;right=0;pointerEvents=1;" vertex="1" parent="HjpduZWSPB27V8v7-c5q-962">
          <mxGeometry x="17" width="2" as="geometry">
            <mxRectangle width="2" as="alternateBounds" />
          </mxGeometry>
        </mxCell>
        <mxCell id="HjpduZWSPB27V8v7-c5q-975" value="" style="shape=partialRectangle;html=1;whiteSpace=wrap;connectable=0;strokeColor=inherit;overflow=hidden;fillColor=none;top=0;left=0;bottom=0;right=0;pointerEvents=1;" vertex="1" parent="HjpduZWSPB27V8v7-c5q-962">
          <mxGeometry x="19" width="1" as="geometry">
            <mxRectangle width="1" as="alternateBounds" />
          </mxGeometry>
        </mxCell>
        <mxCell id="HjpduZWSPB27V8v7-c5q-976" value="" style="shape=partialRectangle;html=1;whiteSpace=wrap;connectable=0;strokeColor=inherit;overflow=hidden;fillColor=none;top=0;left=0;bottom=0;right=0;pointerEvents=1;" vertex="1" parent="HjpduZWSPB27V8v7-c5q-962">
          <mxGeometry x="20" width="2" as="geometry">
            <mxRectangle width="2" as="alternateBounds" />
          </mxGeometry>
        </mxCell>
        <mxCell id="HjpduZWSPB27V8v7-c5q-977" value="" style="shape=partialRectangle;html=1;whiteSpace=wrap;connectable=0;strokeColor=inherit;overflow=hidden;fillColor=none;top=0;left=0;bottom=0;right=0;pointerEvents=1;" vertex="1" parent="HjpduZWSPB27V8v7-c5q-962">
          <mxGeometry x="22" width="1" as="geometry">
            <mxRectangle width="1" as="alternateBounds" />
          </mxGeometry>
        </mxCell>
        <mxCell id="HjpduZWSPB27V8v7-c5q-978" value="" style="shape=partialRectangle;html=1;whiteSpace=wrap;connectable=0;strokeColor=inherit;overflow=hidden;fillColor=none;top=0;left=0;bottom=0;right=0;pointerEvents=1;" vertex="1" parent="HjpduZWSPB27V8v7-c5q-962">
          <mxGeometry x="23" width="2" as="geometry">
            <mxRectangle width="2" as="alternateBounds" />
          </mxGeometry>
        </mxCell>
        <mxCell id="HjpduZWSPB27V8v7-c5q-979" value="" style="shape=tableRow;horizontal=0;startSize=0;swimlaneHead=0;swimlaneBody=0;strokeColor=inherit;top=0;left=0;bottom=0;right=0;collapsible=0;dropTarget=0;fillColor=none;points=[[0,0.5],[1,0.5]];portConstraint=eastwest;" vertex="1" parent="HjpduZWSPB27V8v7-c5q-876">
          <mxGeometry y="35" width="25" height="1" as="geometry" />
        </mxCell>
        <mxCell id="HjpduZWSPB27V8v7-c5q-980" value="" style="shape=partialRectangle;html=1;whiteSpace=wrap;connectable=0;strokeColor=inherit;overflow=hidden;fillColor=none;top=0;left=0;bottom=0;right=0;pointerEvents=1;" vertex="1" parent="HjpduZWSPB27V8v7-c5q-979">
          <mxGeometry width="2" height="1" as="geometry">
            <mxRectangle width="2" height="1" as="alternateBounds" />
          </mxGeometry>
        </mxCell>
        <mxCell id="HjpduZWSPB27V8v7-c5q-981" value="" style="shape=partialRectangle;html=1;whiteSpace=wrap;connectable=0;strokeColor=inherit;overflow=hidden;fillColor=none;top=0;left=0;bottom=0;right=0;pointerEvents=1;" vertex="1" parent="HjpduZWSPB27V8v7-c5q-979">
          <mxGeometry x="2" height="1" as="geometry">
            <mxRectangle height="1" as="alternateBounds" />
          </mxGeometry>
        </mxCell>
        <mxCell id="HjpduZWSPB27V8v7-c5q-982" value="" style="shape=partialRectangle;html=1;whiteSpace=wrap;connectable=0;strokeColor=inherit;overflow=hidden;fillColor=none;top=0;left=0;bottom=0;right=0;pointerEvents=1;" vertex="1" parent="HjpduZWSPB27V8v7-c5q-979">
          <mxGeometry x="2" width="3" height="1" as="geometry">
            <mxRectangle width="3" height="1" as="alternateBounds" />
          </mxGeometry>
        </mxCell>
        <mxCell id="HjpduZWSPB27V8v7-c5q-983" value="" style="shape=partialRectangle;html=1;whiteSpace=wrap;connectable=0;strokeColor=inherit;overflow=hidden;fillColor=none;top=0;left=0;bottom=0;right=0;pointerEvents=1;" vertex="1" parent="HjpduZWSPB27V8v7-c5q-979">
          <mxGeometry x="5" width="1" height="1" as="geometry">
            <mxRectangle width="1" height="1" as="alternateBounds" />
          </mxGeometry>
        </mxCell>
        <mxCell id="HjpduZWSPB27V8v7-c5q-984" value="" style="shape=partialRectangle;html=1;whiteSpace=wrap;connectable=0;strokeColor=inherit;overflow=hidden;fillColor=none;top=0;left=0;bottom=0;right=0;pointerEvents=1;" vertex="1" parent="HjpduZWSPB27V8v7-c5q-979">
          <mxGeometry x="6" width="2" height="1" as="geometry">
            <mxRectangle width="2" height="1" as="alternateBounds" />
          </mxGeometry>
        </mxCell>
        <mxCell id="HjpduZWSPB27V8v7-c5q-985" value="" style="shape=partialRectangle;html=1;whiteSpace=wrap;connectable=0;strokeColor=inherit;overflow=hidden;fillColor=none;top=0;left=0;bottom=0;right=0;pointerEvents=1;" vertex="1" parent="HjpduZWSPB27V8v7-c5q-979">
          <mxGeometry x="8" height="1" as="geometry">
            <mxRectangle height="1" as="alternateBounds" />
          </mxGeometry>
        </mxCell>
        <mxCell id="HjpduZWSPB27V8v7-c5q-986" value="" style="shape=partialRectangle;html=1;whiteSpace=wrap;connectable=0;strokeColor=inherit;overflow=hidden;fillColor=none;top=0;left=0;bottom=0;right=0;pointerEvents=1;" vertex="1" parent="HjpduZWSPB27V8v7-c5q-979">
          <mxGeometry x="8" width="3" height="1" as="geometry">
            <mxRectangle width="3" height="1" as="alternateBounds" />
          </mxGeometry>
        </mxCell>
        <mxCell id="HjpduZWSPB27V8v7-c5q-987" value="" style="shape=partialRectangle;html=1;whiteSpace=wrap;connectable=0;strokeColor=inherit;overflow=hidden;fillColor=none;top=0;left=0;bottom=0;right=0;pointerEvents=1;" vertex="1" parent="HjpduZWSPB27V8v7-c5q-979">
          <mxGeometry x="11" width="2" height="1" as="geometry">
            <mxRectangle width="2" height="1" as="alternateBounds" />
          </mxGeometry>
        </mxCell>
        <mxCell id="HjpduZWSPB27V8v7-c5q-988" value="" style="shape=partialRectangle;html=1;whiteSpace=wrap;connectable=0;strokeColor=inherit;overflow=hidden;fillColor=none;top=0;left=0;bottom=0;right=0;pointerEvents=1;" vertex="1" parent="HjpduZWSPB27V8v7-c5q-979">
          <mxGeometry x="13" width="1" height="1" as="geometry">
            <mxRectangle width="1" height="1" as="alternateBounds" />
          </mxGeometry>
        </mxCell>
        <mxCell id="HjpduZWSPB27V8v7-c5q-989" value="" style="shape=partialRectangle;html=1;whiteSpace=wrap;connectable=0;strokeColor=inherit;overflow=hidden;fillColor=none;top=0;left=0;bottom=0;right=0;pointerEvents=1;" vertex="1" parent="HjpduZWSPB27V8v7-c5q-979">
          <mxGeometry x="14" width="2" height="1" as="geometry">
            <mxRectangle width="2" height="1" as="alternateBounds" />
          </mxGeometry>
        </mxCell>
        <mxCell id="HjpduZWSPB27V8v7-c5q-990" value="" style="shape=partialRectangle;html=1;whiteSpace=wrap;connectable=0;strokeColor=inherit;overflow=hidden;fillColor=none;top=0;left=0;bottom=0;right=0;pointerEvents=1;" vertex="1" parent="HjpduZWSPB27V8v7-c5q-979">
          <mxGeometry x="16" width="1" height="1" as="geometry">
            <mxRectangle width="1" height="1" as="alternateBounds" />
          </mxGeometry>
        </mxCell>
        <mxCell id="HjpduZWSPB27V8v7-c5q-991" value="" style="shape=partialRectangle;html=1;whiteSpace=wrap;connectable=0;strokeColor=inherit;overflow=hidden;fillColor=none;top=0;left=0;bottom=0;right=0;pointerEvents=1;" vertex="1" parent="HjpduZWSPB27V8v7-c5q-979">
          <mxGeometry x="17" width="2" height="1" as="geometry">
            <mxRectangle width="2" height="1" as="alternateBounds" />
          </mxGeometry>
        </mxCell>
        <mxCell id="HjpduZWSPB27V8v7-c5q-992" value="" style="shape=partialRectangle;html=1;whiteSpace=wrap;connectable=0;strokeColor=inherit;overflow=hidden;fillColor=none;top=0;left=0;bottom=0;right=0;pointerEvents=1;" vertex="1" parent="HjpduZWSPB27V8v7-c5q-979">
          <mxGeometry x="19" width="1" height="1" as="geometry">
            <mxRectangle width="1" height="1" as="alternateBounds" />
          </mxGeometry>
        </mxCell>
        <mxCell id="HjpduZWSPB27V8v7-c5q-993" value="" style="shape=partialRectangle;html=1;whiteSpace=wrap;connectable=0;strokeColor=inherit;overflow=hidden;fillColor=none;top=0;left=0;bottom=0;right=0;pointerEvents=1;" vertex="1" parent="HjpduZWSPB27V8v7-c5q-979">
          <mxGeometry x="20" width="2" height="1" as="geometry">
            <mxRectangle width="2" height="1" as="alternateBounds" />
          </mxGeometry>
        </mxCell>
        <mxCell id="HjpduZWSPB27V8v7-c5q-994" value="" style="shape=partialRectangle;html=1;whiteSpace=wrap;connectable=0;strokeColor=inherit;overflow=hidden;fillColor=none;top=0;left=0;bottom=0;right=0;pointerEvents=1;" vertex="1" parent="HjpduZWSPB27V8v7-c5q-979">
          <mxGeometry x="22" width="1" height="1" as="geometry">
            <mxRectangle width="1" height="1" as="alternateBounds" />
          </mxGeometry>
        </mxCell>
        <mxCell id="HjpduZWSPB27V8v7-c5q-995" value="" style="shape=partialRectangle;html=1;whiteSpace=wrap;connectable=0;strokeColor=inherit;overflow=hidden;fillColor=none;top=0;left=0;bottom=0;right=0;pointerEvents=1;" vertex="1" parent="HjpduZWSPB27V8v7-c5q-979">
          <mxGeometry x="23" width="2" height="1" as="geometry">
            <mxRectangle width="2" height="1" as="alternateBounds" />
          </mxGeometry>
        </mxCell>
        <mxCell id="HjpduZWSPB27V8v7-c5q-996" value="" style="shape=tableRow;horizontal=0;startSize=0;swimlaneHead=0;swimlaneBody=0;strokeColor=inherit;top=0;left=0;bottom=0;right=0;collapsible=0;dropTarget=0;fillColor=none;points=[[0,0.5],[1,0.5]];portConstraint=eastwest;" vertex="1" parent="HjpduZWSPB27V8v7-c5q-876">
          <mxGeometry y="36" width="25" as="geometry" />
        </mxCell>
        <mxCell id="HjpduZWSPB27V8v7-c5q-997" value="" style="shape=partialRectangle;html=1;whiteSpace=wrap;connectable=0;strokeColor=inherit;overflow=hidden;fillColor=none;top=0;left=0;bottom=0;right=0;pointerEvents=1;" vertex="1" parent="HjpduZWSPB27V8v7-c5q-996">
          <mxGeometry width="2" as="geometry">
            <mxRectangle width="2" as="alternateBounds" />
          </mxGeometry>
        </mxCell>
        <mxCell id="HjpduZWSPB27V8v7-c5q-998" value="" style="shape=partialRectangle;html=1;whiteSpace=wrap;connectable=0;strokeColor=inherit;overflow=hidden;fillColor=none;top=0;left=0;bottom=0;right=0;pointerEvents=1;" vertex="1" parent="HjpduZWSPB27V8v7-c5q-996">
          <mxGeometry x="2" as="geometry">
            <mxRectangle as="alternateBounds" />
          </mxGeometry>
        </mxCell>
        <mxCell id="HjpduZWSPB27V8v7-c5q-999" value="" style="shape=partialRectangle;html=1;whiteSpace=wrap;connectable=0;strokeColor=inherit;overflow=hidden;fillColor=none;top=0;left=0;bottom=0;right=0;pointerEvents=1;" vertex="1" parent="HjpduZWSPB27V8v7-c5q-996">
          <mxGeometry x="2" width="3" as="geometry">
            <mxRectangle width="3" as="alternateBounds" />
          </mxGeometry>
        </mxCell>
        <mxCell id="HjpduZWSPB27V8v7-c5q-1000" value="" style="shape=partialRectangle;html=1;whiteSpace=wrap;connectable=0;strokeColor=inherit;overflow=hidden;fillColor=none;top=0;left=0;bottom=0;right=0;pointerEvents=1;" vertex="1" parent="HjpduZWSPB27V8v7-c5q-996">
          <mxGeometry x="5" width="1" as="geometry">
            <mxRectangle width="1" as="alternateBounds" />
          </mxGeometry>
        </mxCell>
        <mxCell id="HjpduZWSPB27V8v7-c5q-1001" value="" style="shape=partialRectangle;html=1;whiteSpace=wrap;connectable=0;strokeColor=inherit;overflow=hidden;fillColor=none;top=0;left=0;bottom=0;right=0;pointerEvents=1;" vertex="1" parent="HjpduZWSPB27V8v7-c5q-996">
          <mxGeometry x="6" width="2" as="geometry">
            <mxRectangle width="2" as="alternateBounds" />
          </mxGeometry>
        </mxCell>
        <mxCell id="HjpduZWSPB27V8v7-c5q-1002" value="" style="shape=partialRectangle;html=1;whiteSpace=wrap;connectable=0;strokeColor=inherit;overflow=hidden;fillColor=none;top=0;left=0;bottom=0;right=0;pointerEvents=1;" vertex="1" parent="HjpduZWSPB27V8v7-c5q-996">
          <mxGeometry x="8" as="geometry">
            <mxRectangle as="alternateBounds" />
          </mxGeometry>
        </mxCell>
        <mxCell id="HjpduZWSPB27V8v7-c5q-1003" value="" style="shape=partialRectangle;html=1;whiteSpace=wrap;connectable=0;strokeColor=inherit;overflow=hidden;fillColor=none;top=0;left=0;bottom=0;right=0;pointerEvents=1;" vertex="1" parent="HjpduZWSPB27V8v7-c5q-996">
          <mxGeometry x="8" width="3" as="geometry">
            <mxRectangle width="3" as="alternateBounds" />
          </mxGeometry>
        </mxCell>
        <mxCell id="HjpduZWSPB27V8v7-c5q-1004" value="" style="shape=partialRectangle;html=1;whiteSpace=wrap;connectable=0;strokeColor=inherit;overflow=hidden;fillColor=none;top=0;left=0;bottom=0;right=0;pointerEvents=1;" vertex="1" parent="HjpduZWSPB27V8v7-c5q-996">
          <mxGeometry x="11" width="2" as="geometry">
            <mxRectangle width="2" as="alternateBounds" />
          </mxGeometry>
        </mxCell>
        <mxCell id="HjpduZWSPB27V8v7-c5q-1005" value="" style="shape=partialRectangle;html=1;whiteSpace=wrap;connectable=0;strokeColor=inherit;overflow=hidden;fillColor=none;top=0;left=0;bottom=0;right=0;pointerEvents=1;" vertex="1" parent="HjpduZWSPB27V8v7-c5q-996">
          <mxGeometry x="13" width="1" as="geometry">
            <mxRectangle width="1" as="alternateBounds" />
          </mxGeometry>
        </mxCell>
        <mxCell id="HjpduZWSPB27V8v7-c5q-1006" value="" style="shape=partialRectangle;html=1;whiteSpace=wrap;connectable=0;strokeColor=inherit;overflow=hidden;fillColor=none;top=0;left=0;bottom=0;right=0;pointerEvents=1;" vertex="1" parent="HjpduZWSPB27V8v7-c5q-996">
          <mxGeometry x="14" width="2" as="geometry">
            <mxRectangle width="2" as="alternateBounds" />
          </mxGeometry>
        </mxCell>
        <mxCell id="HjpduZWSPB27V8v7-c5q-1007" value="" style="shape=partialRectangle;html=1;whiteSpace=wrap;connectable=0;strokeColor=inherit;overflow=hidden;fillColor=none;top=0;left=0;bottom=0;right=0;pointerEvents=1;" vertex="1" parent="HjpduZWSPB27V8v7-c5q-996">
          <mxGeometry x="16" width="1" as="geometry">
            <mxRectangle width="1" as="alternateBounds" />
          </mxGeometry>
        </mxCell>
        <mxCell id="HjpduZWSPB27V8v7-c5q-1008" value="" style="shape=partialRectangle;html=1;whiteSpace=wrap;connectable=0;strokeColor=inherit;overflow=hidden;fillColor=none;top=0;left=0;bottom=0;right=0;pointerEvents=1;" vertex="1" parent="HjpduZWSPB27V8v7-c5q-996">
          <mxGeometry x="17" width="2" as="geometry">
            <mxRectangle width="2" as="alternateBounds" />
          </mxGeometry>
        </mxCell>
        <mxCell id="HjpduZWSPB27V8v7-c5q-1009" value="" style="shape=partialRectangle;html=1;whiteSpace=wrap;connectable=0;strokeColor=inherit;overflow=hidden;fillColor=none;top=0;left=0;bottom=0;right=0;pointerEvents=1;" vertex="1" parent="HjpduZWSPB27V8v7-c5q-996">
          <mxGeometry x="19" width="1" as="geometry">
            <mxRectangle width="1" as="alternateBounds" />
          </mxGeometry>
        </mxCell>
        <mxCell id="HjpduZWSPB27V8v7-c5q-1010" value="" style="shape=partialRectangle;html=1;whiteSpace=wrap;connectable=0;strokeColor=inherit;overflow=hidden;fillColor=none;top=0;left=0;bottom=0;right=0;pointerEvents=1;" vertex="1" parent="HjpduZWSPB27V8v7-c5q-996">
          <mxGeometry x="20" width="2" as="geometry">
            <mxRectangle width="2" as="alternateBounds" />
          </mxGeometry>
        </mxCell>
        <mxCell id="HjpduZWSPB27V8v7-c5q-1011" value="" style="shape=partialRectangle;html=1;whiteSpace=wrap;connectable=0;strokeColor=inherit;overflow=hidden;fillColor=none;top=0;left=0;bottom=0;right=0;pointerEvents=1;" vertex="1" parent="HjpduZWSPB27V8v7-c5q-996">
          <mxGeometry x="22" width="1" as="geometry">
            <mxRectangle width="1" as="alternateBounds" />
          </mxGeometry>
        </mxCell>
        <mxCell id="HjpduZWSPB27V8v7-c5q-1012" value="" style="shape=partialRectangle;html=1;whiteSpace=wrap;connectable=0;strokeColor=inherit;overflow=hidden;fillColor=none;top=0;left=0;bottom=0;right=0;pointerEvents=1;" vertex="1" parent="HjpduZWSPB27V8v7-c5q-996">
          <mxGeometry x="23" width="2" as="geometry">
            <mxRectangle width="2" as="alternateBounds" />
          </mxGeometry>
        </mxCell>
        <mxCell id="HjpduZWSPB27V8v7-c5q-1013" value="" style="shape=tableRow;horizontal=0;startSize=0;swimlaneHead=0;swimlaneBody=0;strokeColor=inherit;top=0;left=0;bottom=0;right=0;collapsible=0;dropTarget=0;fillColor=none;points=[[0,0.5],[1,0.5]];portConstraint=eastwest;" vertex="1" parent="HjpduZWSPB27V8v7-c5q-876">
          <mxGeometry y="36" width="25" as="geometry" />
        </mxCell>
        <mxCell id="HjpduZWSPB27V8v7-c5q-1014" value="" style="shape=partialRectangle;html=1;whiteSpace=wrap;connectable=0;strokeColor=inherit;overflow=hidden;fillColor=none;top=0;left=0;bottom=0;right=0;pointerEvents=1;" vertex="1" parent="HjpduZWSPB27V8v7-c5q-1013">
          <mxGeometry width="2" as="geometry">
            <mxRectangle width="2" as="alternateBounds" />
          </mxGeometry>
        </mxCell>
        <mxCell id="HjpduZWSPB27V8v7-c5q-1015" value="" style="shape=partialRectangle;html=1;whiteSpace=wrap;connectable=0;strokeColor=inherit;overflow=hidden;fillColor=none;top=0;left=0;bottom=0;right=0;pointerEvents=1;" vertex="1" parent="HjpduZWSPB27V8v7-c5q-1013">
          <mxGeometry x="2" as="geometry">
            <mxRectangle as="alternateBounds" />
          </mxGeometry>
        </mxCell>
        <mxCell id="HjpduZWSPB27V8v7-c5q-1016" value="" style="shape=partialRectangle;html=1;whiteSpace=wrap;connectable=0;strokeColor=inherit;overflow=hidden;fillColor=none;top=0;left=0;bottom=0;right=0;pointerEvents=1;" vertex="1" parent="HjpduZWSPB27V8v7-c5q-1013">
          <mxGeometry x="2" width="3" as="geometry">
            <mxRectangle width="3" as="alternateBounds" />
          </mxGeometry>
        </mxCell>
        <mxCell id="HjpduZWSPB27V8v7-c5q-1017" value="" style="shape=partialRectangle;html=1;whiteSpace=wrap;connectable=0;strokeColor=inherit;overflow=hidden;fillColor=none;top=0;left=0;bottom=0;right=0;pointerEvents=1;" vertex="1" parent="HjpduZWSPB27V8v7-c5q-1013">
          <mxGeometry x="5" width="1" as="geometry">
            <mxRectangle width="1" as="alternateBounds" />
          </mxGeometry>
        </mxCell>
        <mxCell id="HjpduZWSPB27V8v7-c5q-1018" value="" style="shape=partialRectangle;html=1;whiteSpace=wrap;connectable=0;strokeColor=inherit;overflow=hidden;fillColor=none;top=0;left=0;bottom=0;right=0;pointerEvents=1;" vertex="1" parent="HjpduZWSPB27V8v7-c5q-1013">
          <mxGeometry x="6" width="2" as="geometry">
            <mxRectangle width="2" as="alternateBounds" />
          </mxGeometry>
        </mxCell>
        <mxCell id="HjpduZWSPB27V8v7-c5q-1019" value="" style="shape=partialRectangle;html=1;whiteSpace=wrap;connectable=0;strokeColor=inherit;overflow=hidden;fillColor=none;top=0;left=0;bottom=0;right=0;pointerEvents=1;" vertex="1" parent="HjpduZWSPB27V8v7-c5q-1013">
          <mxGeometry x="8" as="geometry">
            <mxRectangle as="alternateBounds" />
          </mxGeometry>
        </mxCell>
        <mxCell id="HjpduZWSPB27V8v7-c5q-1020" value="" style="shape=partialRectangle;html=1;whiteSpace=wrap;connectable=0;strokeColor=inherit;overflow=hidden;fillColor=none;top=0;left=0;bottom=0;right=0;pointerEvents=1;" vertex="1" parent="HjpduZWSPB27V8v7-c5q-1013">
          <mxGeometry x="8" width="3" as="geometry">
            <mxRectangle width="3" as="alternateBounds" />
          </mxGeometry>
        </mxCell>
        <mxCell id="HjpduZWSPB27V8v7-c5q-1021" value="" style="shape=partialRectangle;html=1;whiteSpace=wrap;connectable=0;strokeColor=inherit;overflow=hidden;fillColor=none;top=0;left=0;bottom=0;right=0;pointerEvents=1;" vertex="1" parent="HjpduZWSPB27V8v7-c5q-1013">
          <mxGeometry x="11" width="2" as="geometry">
            <mxRectangle width="2" as="alternateBounds" />
          </mxGeometry>
        </mxCell>
        <mxCell id="HjpduZWSPB27V8v7-c5q-1022" value="" style="shape=partialRectangle;html=1;whiteSpace=wrap;connectable=0;strokeColor=inherit;overflow=hidden;fillColor=none;top=0;left=0;bottom=0;right=0;pointerEvents=1;" vertex="1" parent="HjpduZWSPB27V8v7-c5q-1013">
          <mxGeometry x="13" width="1" as="geometry">
            <mxRectangle width="1" as="alternateBounds" />
          </mxGeometry>
        </mxCell>
        <mxCell id="HjpduZWSPB27V8v7-c5q-1023" value="" style="shape=partialRectangle;html=1;whiteSpace=wrap;connectable=0;strokeColor=inherit;overflow=hidden;fillColor=none;top=0;left=0;bottom=0;right=0;pointerEvents=1;" vertex="1" parent="HjpduZWSPB27V8v7-c5q-1013">
          <mxGeometry x="14" width="2" as="geometry">
            <mxRectangle width="2" as="alternateBounds" />
          </mxGeometry>
        </mxCell>
        <mxCell id="HjpduZWSPB27V8v7-c5q-1024" value="" style="shape=partialRectangle;html=1;whiteSpace=wrap;connectable=0;strokeColor=inherit;overflow=hidden;fillColor=none;top=0;left=0;bottom=0;right=0;pointerEvents=1;" vertex="1" parent="HjpduZWSPB27V8v7-c5q-1013">
          <mxGeometry x="16" width="1" as="geometry">
            <mxRectangle width="1" as="alternateBounds" />
          </mxGeometry>
        </mxCell>
        <mxCell id="HjpduZWSPB27V8v7-c5q-1025" value="" style="shape=partialRectangle;html=1;whiteSpace=wrap;connectable=0;strokeColor=inherit;overflow=hidden;fillColor=none;top=0;left=0;bottom=0;right=0;pointerEvents=1;" vertex="1" parent="HjpduZWSPB27V8v7-c5q-1013">
          <mxGeometry x="17" width="2" as="geometry">
            <mxRectangle width="2" as="alternateBounds" />
          </mxGeometry>
        </mxCell>
        <mxCell id="HjpduZWSPB27V8v7-c5q-1026" value="" style="shape=partialRectangle;html=1;whiteSpace=wrap;connectable=0;strokeColor=inherit;overflow=hidden;fillColor=none;top=0;left=0;bottom=0;right=0;pointerEvents=1;" vertex="1" parent="HjpduZWSPB27V8v7-c5q-1013">
          <mxGeometry x="19" width="1" as="geometry">
            <mxRectangle width="1" as="alternateBounds" />
          </mxGeometry>
        </mxCell>
        <mxCell id="HjpduZWSPB27V8v7-c5q-1027" value="" style="shape=partialRectangle;html=1;whiteSpace=wrap;connectable=0;strokeColor=inherit;overflow=hidden;fillColor=none;top=0;left=0;bottom=0;right=0;pointerEvents=1;" vertex="1" parent="HjpduZWSPB27V8v7-c5q-1013">
          <mxGeometry x="20" width="2" as="geometry">
            <mxRectangle width="2" as="alternateBounds" />
          </mxGeometry>
        </mxCell>
        <mxCell id="HjpduZWSPB27V8v7-c5q-1028" value="" style="shape=partialRectangle;html=1;whiteSpace=wrap;connectable=0;strokeColor=inherit;overflow=hidden;fillColor=none;top=0;left=0;bottom=0;right=0;pointerEvents=1;" vertex="1" parent="HjpduZWSPB27V8v7-c5q-1013">
          <mxGeometry x="22" width="1" as="geometry">
            <mxRectangle width="1" as="alternateBounds" />
          </mxGeometry>
        </mxCell>
        <mxCell id="HjpduZWSPB27V8v7-c5q-1029" value="" style="shape=partialRectangle;html=1;whiteSpace=wrap;connectable=0;strokeColor=inherit;overflow=hidden;fillColor=none;top=0;left=0;bottom=0;right=0;pointerEvents=1;" vertex="1" parent="HjpduZWSPB27V8v7-c5q-1013">
          <mxGeometry x="23" width="2" as="geometry">
            <mxRectangle width="2" as="alternateBounds" />
          </mxGeometry>
        </mxCell>
        <mxCell id="HjpduZWSPB27V8v7-c5q-1030" value="" style="shape=tableRow;horizontal=0;startSize=0;swimlaneHead=0;swimlaneBody=0;strokeColor=inherit;top=0;left=0;bottom=0;right=0;collapsible=0;dropTarget=0;fillColor=none;points=[[0,0.5],[1,0.5]];portConstraint=eastwest;" vertex="1" parent="HjpduZWSPB27V8v7-c5q-876">
          <mxGeometry y="36" width="25" as="geometry" />
        </mxCell>
        <mxCell id="HjpduZWSPB27V8v7-c5q-1031" value="" style="shape=partialRectangle;html=1;whiteSpace=wrap;connectable=0;strokeColor=inherit;overflow=hidden;fillColor=none;top=0;left=0;bottom=0;right=0;pointerEvents=1;" vertex="1" parent="HjpduZWSPB27V8v7-c5q-1030">
          <mxGeometry width="2" as="geometry">
            <mxRectangle width="2" as="alternateBounds" />
          </mxGeometry>
        </mxCell>
        <mxCell id="HjpduZWSPB27V8v7-c5q-1032" value="" style="shape=partialRectangle;html=1;whiteSpace=wrap;connectable=0;strokeColor=inherit;overflow=hidden;fillColor=none;top=0;left=0;bottom=0;right=0;pointerEvents=1;" vertex="1" parent="HjpduZWSPB27V8v7-c5q-1030">
          <mxGeometry x="2" as="geometry">
            <mxRectangle as="alternateBounds" />
          </mxGeometry>
        </mxCell>
        <mxCell id="HjpduZWSPB27V8v7-c5q-1033" value="" style="shape=partialRectangle;html=1;whiteSpace=wrap;connectable=0;strokeColor=inherit;overflow=hidden;fillColor=none;top=0;left=0;bottom=0;right=0;pointerEvents=1;" vertex="1" parent="HjpduZWSPB27V8v7-c5q-1030">
          <mxGeometry x="2" width="3" as="geometry">
            <mxRectangle width="3" as="alternateBounds" />
          </mxGeometry>
        </mxCell>
        <mxCell id="HjpduZWSPB27V8v7-c5q-1034" value="" style="shape=partialRectangle;html=1;whiteSpace=wrap;connectable=0;strokeColor=inherit;overflow=hidden;fillColor=none;top=0;left=0;bottom=0;right=0;pointerEvents=1;" vertex="1" parent="HjpduZWSPB27V8v7-c5q-1030">
          <mxGeometry x="5" width="1" as="geometry">
            <mxRectangle width="1" as="alternateBounds" />
          </mxGeometry>
        </mxCell>
        <mxCell id="HjpduZWSPB27V8v7-c5q-1035" value="" style="shape=partialRectangle;html=1;whiteSpace=wrap;connectable=0;strokeColor=inherit;overflow=hidden;fillColor=none;top=0;left=0;bottom=0;right=0;pointerEvents=1;" vertex="1" parent="HjpduZWSPB27V8v7-c5q-1030">
          <mxGeometry x="6" width="2" as="geometry">
            <mxRectangle width="2" as="alternateBounds" />
          </mxGeometry>
        </mxCell>
        <mxCell id="HjpduZWSPB27V8v7-c5q-1036" value="" style="shape=partialRectangle;html=1;whiteSpace=wrap;connectable=0;strokeColor=inherit;overflow=hidden;fillColor=none;top=0;left=0;bottom=0;right=0;pointerEvents=1;" vertex="1" parent="HjpduZWSPB27V8v7-c5q-1030">
          <mxGeometry x="8" as="geometry">
            <mxRectangle as="alternateBounds" />
          </mxGeometry>
        </mxCell>
        <mxCell id="HjpduZWSPB27V8v7-c5q-1037" value="" style="shape=partialRectangle;html=1;whiteSpace=wrap;connectable=0;strokeColor=inherit;overflow=hidden;fillColor=none;top=0;left=0;bottom=0;right=0;pointerEvents=1;" vertex="1" parent="HjpduZWSPB27V8v7-c5q-1030">
          <mxGeometry x="8" width="3" as="geometry">
            <mxRectangle width="3" as="alternateBounds" />
          </mxGeometry>
        </mxCell>
        <mxCell id="HjpduZWSPB27V8v7-c5q-1038" value="" style="shape=partialRectangle;html=1;whiteSpace=wrap;connectable=0;strokeColor=inherit;overflow=hidden;fillColor=none;top=0;left=0;bottom=0;right=0;pointerEvents=1;" vertex="1" parent="HjpduZWSPB27V8v7-c5q-1030">
          <mxGeometry x="11" width="2" as="geometry">
            <mxRectangle width="2" as="alternateBounds" />
          </mxGeometry>
        </mxCell>
        <mxCell id="HjpduZWSPB27V8v7-c5q-1039" value="" style="shape=partialRectangle;html=1;whiteSpace=wrap;connectable=0;strokeColor=inherit;overflow=hidden;fillColor=none;top=0;left=0;bottom=0;right=0;pointerEvents=1;" vertex="1" parent="HjpduZWSPB27V8v7-c5q-1030">
          <mxGeometry x="13" width="1" as="geometry">
            <mxRectangle width="1" as="alternateBounds" />
          </mxGeometry>
        </mxCell>
        <mxCell id="HjpduZWSPB27V8v7-c5q-1040" value="" style="shape=partialRectangle;html=1;whiteSpace=wrap;connectable=0;strokeColor=inherit;overflow=hidden;fillColor=none;top=0;left=0;bottom=0;right=0;pointerEvents=1;" vertex="1" parent="HjpduZWSPB27V8v7-c5q-1030">
          <mxGeometry x="14" width="2" as="geometry">
            <mxRectangle width="2" as="alternateBounds" />
          </mxGeometry>
        </mxCell>
        <mxCell id="HjpduZWSPB27V8v7-c5q-1041" value="" style="shape=partialRectangle;html=1;whiteSpace=wrap;connectable=0;strokeColor=inherit;overflow=hidden;fillColor=none;top=0;left=0;bottom=0;right=0;pointerEvents=1;" vertex="1" parent="HjpduZWSPB27V8v7-c5q-1030">
          <mxGeometry x="16" width="1" as="geometry">
            <mxRectangle width="1" as="alternateBounds" />
          </mxGeometry>
        </mxCell>
        <mxCell id="HjpduZWSPB27V8v7-c5q-1042" value="" style="shape=partialRectangle;html=1;whiteSpace=wrap;connectable=0;strokeColor=inherit;overflow=hidden;fillColor=none;top=0;left=0;bottom=0;right=0;pointerEvents=1;" vertex="1" parent="HjpduZWSPB27V8v7-c5q-1030">
          <mxGeometry x="17" width="2" as="geometry">
            <mxRectangle width="2" as="alternateBounds" />
          </mxGeometry>
        </mxCell>
        <mxCell id="HjpduZWSPB27V8v7-c5q-1043" value="" style="shape=partialRectangle;html=1;whiteSpace=wrap;connectable=0;strokeColor=inherit;overflow=hidden;fillColor=none;top=0;left=0;bottom=0;right=0;pointerEvents=1;" vertex="1" parent="HjpduZWSPB27V8v7-c5q-1030">
          <mxGeometry x="19" width="1" as="geometry">
            <mxRectangle width="1" as="alternateBounds" />
          </mxGeometry>
        </mxCell>
        <mxCell id="HjpduZWSPB27V8v7-c5q-1044" value="" style="shape=partialRectangle;html=1;whiteSpace=wrap;connectable=0;strokeColor=inherit;overflow=hidden;fillColor=none;top=0;left=0;bottom=0;right=0;pointerEvents=1;" vertex="1" parent="HjpduZWSPB27V8v7-c5q-1030">
          <mxGeometry x="20" width="2" as="geometry">
            <mxRectangle width="2" as="alternateBounds" />
          </mxGeometry>
        </mxCell>
        <mxCell id="HjpduZWSPB27V8v7-c5q-1045" value="" style="shape=partialRectangle;html=1;whiteSpace=wrap;connectable=0;strokeColor=inherit;overflow=hidden;fillColor=none;top=0;left=0;bottom=0;right=0;pointerEvents=1;" vertex="1" parent="HjpduZWSPB27V8v7-c5q-1030">
          <mxGeometry x="22" width="1" as="geometry">
            <mxRectangle width="1" as="alternateBounds" />
          </mxGeometry>
        </mxCell>
        <mxCell id="HjpduZWSPB27V8v7-c5q-1046" value="" style="shape=partialRectangle;html=1;whiteSpace=wrap;connectable=0;strokeColor=inherit;overflow=hidden;fillColor=none;top=0;left=0;bottom=0;right=0;pointerEvents=1;" vertex="1" parent="HjpduZWSPB27V8v7-c5q-1030">
          <mxGeometry x="23" width="2" as="geometry">
            <mxRectangle width="2" as="alternateBounds" />
          </mxGeometry>
        </mxCell>
        <mxCell id="HjpduZWSPB27V8v7-c5q-1047" value="" style="shape=tableRow;horizontal=0;startSize=0;swimlaneHead=0;swimlaneBody=0;strokeColor=inherit;top=0;left=0;bottom=0;right=0;collapsible=0;dropTarget=0;fillColor=none;points=[[0,0.5],[1,0.5]];portConstraint=eastwest;" vertex="1" parent="HjpduZWSPB27V8v7-c5q-876">
          <mxGeometry y="36" width="25" height="1" as="geometry" />
        </mxCell>
        <mxCell id="HjpduZWSPB27V8v7-c5q-1048" value="" style="shape=partialRectangle;html=1;whiteSpace=wrap;connectable=0;strokeColor=inherit;overflow=hidden;fillColor=none;top=0;left=0;bottom=0;right=0;pointerEvents=1;" vertex="1" parent="HjpduZWSPB27V8v7-c5q-1047">
          <mxGeometry width="2" height="1" as="geometry">
            <mxRectangle width="2" height="1" as="alternateBounds" />
          </mxGeometry>
        </mxCell>
        <mxCell id="HjpduZWSPB27V8v7-c5q-1049" value="" style="shape=partialRectangle;html=1;whiteSpace=wrap;connectable=0;strokeColor=inherit;overflow=hidden;fillColor=none;top=0;left=0;bottom=0;right=0;pointerEvents=1;" vertex="1" parent="HjpduZWSPB27V8v7-c5q-1047">
          <mxGeometry x="2" height="1" as="geometry">
            <mxRectangle height="1" as="alternateBounds" />
          </mxGeometry>
        </mxCell>
        <mxCell id="HjpduZWSPB27V8v7-c5q-1050" value="" style="shape=partialRectangle;html=1;whiteSpace=wrap;connectable=0;strokeColor=inherit;overflow=hidden;fillColor=none;top=0;left=0;bottom=0;right=0;pointerEvents=1;" vertex="1" parent="HjpduZWSPB27V8v7-c5q-1047">
          <mxGeometry x="2" width="3" height="1" as="geometry">
            <mxRectangle width="3" height="1" as="alternateBounds" />
          </mxGeometry>
        </mxCell>
        <mxCell id="HjpduZWSPB27V8v7-c5q-1051" value="" style="shape=partialRectangle;html=1;whiteSpace=wrap;connectable=0;strokeColor=inherit;overflow=hidden;fillColor=none;top=0;left=0;bottom=0;right=0;pointerEvents=1;" vertex="1" parent="HjpduZWSPB27V8v7-c5q-1047">
          <mxGeometry x="5" width="1" height="1" as="geometry">
            <mxRectangle width="1" height="1" as="alternateBounds" />
          </mxGeometry>
        </mxCell>
        <mxCell id="HjpduZWSPB27V8v7-c5q-1052" value="" style="shape=partialRectangle;html=1;whiteSpace=wrap;connectable=0;strokeColor=inherit;overflow=hidden;fillColor=none;top=0;left=0;bottom=0;right=0;pointerEvents=1;" vertex="1" parent="HjpduZWSPB27V8v7-c5q-1047">
          <mxGeometry x="6" width="2" height="1" as="geometry">
            <mxRectangle width="2" height="1" as="alternateBounds" />
          </mxGeometry>
        </mxCell>
        <mxCell id="HjpduZWSPB27V8v7-c5q-1053" value="" style="shape=partialRectangle;html=1;whiteSpace=wrap;connectable=0;strokeColor=inherit;overflow=hidden;fillColor=none;top=0;left=0;bottom=0;right=0;pointerEvents=1;" vertex="1" parent="HjpduZWSPB27V8v7-c5q-1047">
          <mxGeometry x="8" height="1" as="geometry">
            <mxRectangle height="1" as="alternateBounds" />
          </mxGeometry>
        </mxCell>
        <mxCell id="HjpduZWSPB27V8v7-c5q-1054" value="" style="shape=partialRectangle;html=1;whiteSpace=wrap;connectable=0;strokeColor=inherit;overflow=hidden;fillColor=none;top=0;left=0;bottom=0;right=0;pointerEvents=1;" vertex="1" parent="HjpduZWSPB27V8v7-c5q-1047">
          <mxGeometry x="8" width="3" height="1" as="geometry">
            <mxRectangle width="3" height="1" as="alternateBounds" />
          </mxGeometry>
        </mxCell>
        <mxCell id="HjpduZWSPB27V8v7-c5q-1055" value="" style="shape=partialRectangle;html=1;whiteSpace=wrap;connectable=0;strokeColor=inherit;overflow=hidden;fillColor=none;top=0;left=0;bottom=0;right=0;pointerEvents=1;" vertex="1" parent="HjpduZWSPB27V8v7-c5q-1047">
          <mxGeometry x="11" width="2" height="1" as="geometry">
            <mxRectangle width="2" height="1" as="alternateBounds" />
          </mxGeometry>
        </mxCell>
        <mxCell id="HjpduZWSPB27V8v7-c5q-1056" value="" style="shape=partialRectangle;html=1;whiteSpace=wrap;connectable=0;strokeColor=inherit;overflow=hidden;fillColor=none;top=0;left=0;bottom=0;right=0;pointerEvents=1;" vertex="1" parent="HjpduZWSPB27V8v7-c5q-1047">
          <mxGeometry x="13" width="1" height="1" as="geometry">
            <mxRectangle width="1" height="1" as="alternateBounds" />
          </mxGeometry>
        </mxCell>
        <mxCell id="HjpduZWSPB27V8v7-c5q-1057" value="" style="shape=partialRectangle;html=1;whiteSpace=wrap;connectable=0;strokeColor=inherit;overflow=hidden;fillColor=none;top=0;left=0;bottom=0;right=0;pointerEvents=1;" vertex="1" parent="HjpduZWSPB27V8v7-c5q-1047">
          <mxGeometry x="14" width="2" height="1" as="geometry">
            <mxRectangle width="2" height="1" as="alternateBounds" />
          </mxGeometry>
        </mxCell>
        <mxCell id="HjpduZWSPB27V8v7-c5q-1058" value="" style="shape=partialRectangle;html=1;whiteSpace=wrap;connectable=0;strokeColor=inherit;overflow=hidden;fillColor=none;top=0;left=0;bottom=0;right=0;pointerEvents=1;" vertex="1" parent="HjpduZWSPB27V8v7-c5q-1047">
          <mxGeometry x="16" width="1" height="1" as="geometry">
            <mxRectangle width="1" height="1" as="alternateBounds" />
          </mxGeometry>
        </mxCell>
        <mxCell id="HjpduZWSPB27V8v7-c5q-1059" value="" style="shape=partialRectangle;html=1;whiteSpace=wrap;connectable=0;strokeColor=inherit;overflow=hidden;fillColor=none;top=0;left=0;bottom=0;right=0;pointerEvents=1;" vertex="1" parent="HjpduZWSPB27V8v7-c5q-1047">
          <mxGeometry x="17" width="2" height="1" as="geometry">
            <mxRectangle width="2" height="1" as="alternateBounds" />
          </mxGeometry>
        </mxCell>
        <mxCell id="HjpduZWSPB27V8v7-c5q-1060" value="" style="shape=partialRectangle;html=1;whiteSpace=wrap;connectable=0;strokeColor=inherit;overflow=hidden;fillColor=none;top=0;left=0;bottom=0;right=0;pointerEvents=1;" vertex="1" parent="HjpduZWSPB27V8v7-c5q-1047">
          <mxGeometry x="19" width="1" height="1" as="geometry">
            <mxRectangle width="1" height="1" as="alternateBounds" />
          </mxGeometry>
        </mxCell>
        <mxCell id="HjpduZWSPB27V8v7-c5q-1061" value="" style="shape=partialRectangle;html=1;whiteSpace=wrap;connectable=0;strokeColor=inherit;overflow=hidden;fillColor=none;top=0;left=0;bottom=0;right=0;pointerEvents=1;" vertex="1" parent="HjpduZWSPB27V8v7-c5q-1047">
          <mxGeometry x="20" width="2" height="1" as="geometry">
            <mxRectangle width="2" height="1" as="alternateBounds" />
          </mxGeometry>
        </mxCell>
        <mxCell id="HjpduZWSPB27V8v7-c5q-1062" value="" style="shape=partialRectangle;html=1;whiteSpace=wrap;connectable=0;strokeColor=inherit;overflow=hidden;fillColor=none;top=0;left=0;bottom=0;right=0;pointerEvents=1;" vertex="1" parent="HjpduZWSPB27V8v7-c5q-1047">
          <mxGeometry x="22" width="1" height="1" as="geometry">
            <mxRectangle width="1" height="1" as="alternateBounds" />
          </mxGeometry>
        </mxCell>
        <mxCell id="HjpduZWSPB27V8v7-c5q-1063" value="" style="shape=partialRectangle;html=1;whiteSpace=wrap;connectable=0;strokeColor=inherit;overflow=hidden;fillColor=none;top=0;left=0;bottom=0;right=0;pointerEvents=1;" vertex="1" parent="HjpduZWSPB27V8v7-c5q-1047">
          <mxGeometry x="23" width="2" height="1" as="geometry">
            <mxRectangle width="2" height="1" as="alternateBounds" />
          </mxGeometry>
        </mxCell>
        <mxCell id="HjpduZWSPB27V8v7-c5q-1064" value="" style="shape=tableRow;horizontal=0;startSize=0;swimlaneHead=0;swimlaneBody=0;strokeColor=inherit;top=0;left=0;bottom=0;right=0;collapsible=0;dropTarget=0;fillColor=none;points=[[0,0.5],[1,0.5]];portConstraint=eastwest;" vertex="1" parent="HjpduZWSPB27V8v7-c5q-876">
          <mxGeometry y="37" width="25" as="geometry" />
        </mxCell>
        <mxCell id="HjpduZWSPB27V8v7-c5q-1065" value="" style="shape=partialRectangle;html=1;whiteSpace=wrap;connectable=0;strokeColor=inherit;overflow=hidden;fillColor=none;top=0;left=0;bottom=0;right=0;pointerEvents=1;" vertex="1" parent="HjpduZWSPB27V8v7-c5q-1064">
          <mxGeometry width="2" as="geometry">
            <mxRectangle width="2" as="alternateBounds" />
          </mxGeometry>
        </mxCell>
        <mxCell id="HjpduZWSPB27V8v7-c5q-1066" value="" style="shape=partialRectangle;html=1;whiteSpace=wrap;connectable=0;strokeColor=inherit;overflow=hidden;fillColor=none;top=0;left=0;bottom=0;right=0;pointerEvents=1;" vertex="1" parent="HjpduZWSPB27V8v7-c5q-1064">
          <mxGeometry x="2" as="geometry">
            <mxRectangle as="alternateBounds" />
          </mxGeometry>
        </mxCell>
        <mxCell id="HjpduZWSPB27V8v7-c5q-1067" value="" style="shape=partialRectangle;html=1;whiteSpace=wrap;connectable=0;strokeColor=inherit;overflow=hidden;fillColor=none;top=0;left=0;bottom=0;right=0;pointerEvents=1;" vertex="1" parent="HjpduZWSPB27V8v7-c5q-1064">
          <mxGeometry x="2" width="3" as="geometry">
            <mxRectangle width="3" as="alternateBounds" />
          </mxGeometry>
        </mxCell>
        <mxCell id="HjpduZWSPB27V8v7-c5q-1068" value="" style="shape=partialRectangle;html=1;whiteSpace=wrap;connectable=0;strokeColor=inherit;overflow=hidden;fillColor=none;top=0;left=0;bottom=0;right=0;pointerEvents=1;" vertex="1" parent="HjpduZWSPB27V8v7-c5q-1064">
          <mxGeometry x="5" width="1" as="geometry">
            <mxRectangle width="1" as="alternateBounds" />
          </mxGeometry>
        </mxCell>
        <mxCell id="HjpduZWSPB27V8v7-c5q-1069" value="" style="shape=partialRectangle;html=1;whiteSpace=wrap;connectable=0;strokeColor=inherit;overflow=hidden;fillColor=none;top=0;left=0;bottom=0;right=0;pointerEvents=1;" vertex="1" parent="HjpduZWSPB27V8v7-c5q-1064">
          <mxGeometry x="6" width="2" as="geometry">
            <mxRectangle width="2" as="alternateBounds" />
          </mxGeometry>
        </mxCell>
        <mxCell id="HjpduZWSPB27V8v7-c5q-1070" value="" style="shape=partialRectangle;html=1;whiteSpace=wrap;connectable=0;strokeColor=inherit;overflow=hidden;fillColor=none;top=0;left=0;bottom=0;right=0;pointerEvents=1;" vertex="1" parent="HjpduZWSPB27V8v7-c5q-1064">
          <mxGeometry x="8" as="geometry">
            <mxRectangle as="alternateBounds" />
          </mxGeometry>
        </mxCell>
        <mxCell id="HjpduZWSPB27V8v7-c5q-1071" value="" style="shape=partialRectangle;html=1;whiteSpace=wrap;connectable=0;strokeColor=inherit;overflow=hidden;fillColor=none;top=0;left=0;bottom=0;right=0;pointerEvents=1;" vertex="1" parent="HjpduZWSPB27V8v7-c5q-1064">
          <mxGeometry x="8" width="3" as="geometry">
            <mxRectangle width="3" as="alternateBounds" />
          </mxGeometry>
        </mxCell>
        <mxCell id="HjpduZWSPB27V8v7-c5q-1072" value="" style="shape=partialRectangle;html=1;whiteSpace=wrap;connectable=0;strokeColor=inherit;overflow=hidden;fillColor=none;top=0;left=0;bottom=0;right=0;pointerEvents=1;" vertex="1" parent="HjpduZWSPB27V8v7-c5q-1064">
          <mxGeometry x="11" width="2" as="geometry">
            <mxRectangle width="2" as="alternateBounds" />
          </mxGeometry>
        </mxCell>
        <mxCell id="HjpduZWSPB27V8v7-c5q-1073" value="" style="shape=partialRectangle;html=1;whiteSpace=wrap;connectable=0;strokeColor=inherit;overflow=hidden;fillColor=none;top=0;left=0;bottom=0;right=0;pointerEvents=1;" vertex="1" parent="HjpduZWSPB27V8v7-c5q-1064">
          <mxGeometry x="13" width="1" as="geometry">
            <mxRectangle width="1" as="alternateBounds" />
          </mxGeometry>
        </mxCell>
        <mxCell id="HjpduZWSPB27V8v7-c5q-1074" value="" style="shape=partialRectangle;html=1;whiteSpace=wrap;connectable=0;strokeColor=inherit;overflow=hidden;fillColor=none;top=0;left=0;bottom=0;right=0;pointerEvents=1;" vertex="1" parent="HjpduZWSPB27V8v7-c5q-1064">
          <mxGeometry x="14" width="2" as="geometry">
            <mxRectangle width="2" as="alternateBounds" />
          </mxGeometry>
        </mxCell>
        <mxCell id="HjpduZWSPB27V8v7-c5q-1075" value="" style="shape=partialRectangle;html=1;whiteSpace=wrap;connectable=0;strokeColor=inherit;overflow=hidden;fillColor=none;top=0;left=0;bottom=0;right=0;pointerEvents=1;" vertex="1" parent="HjpduZWSPB27V8v7-c5q-1064">
          <mxGeometry x="16" width="1" as="geometry">
            <mxRectangle width="1" as="alternateBounds" />
          </mxGeometry>
        </mxCell>
        <mxCell id="HjpduZWSPB27V8v7-c5q-1076" value="" style="shape=partialRectangle;html=1;whiteSpace=wrap;connectable=0;strokeColor=inherit;overflow=hidden;fillColor=none;top=0;left=0;bottom=0;right=0;pointerEvents=1;" vertex="1" parent="HjpduZWSPB27V8v7-c5q-1064">
          <mxGeometry x="17" width="2" as="geometry">
            <mxRectangle width="2" as="alternateBounds" />
          </mxGeometry>
        </mxCell>
        <mxCell id="HjpduZWSPB27V8v7-c5q-1077" value="" style="shape=partialRectangle;html=1;whiteSpace=wrap;connectable=0;strokeColor=inherit;overflow=hidden;fillColor=none;top=0;left=0;bottom=0;right=0;pointerEvents=1;" vertex="1" parent="HjpduZWSPB27V8v7-c5q-1064">
          <mxGeometry x="19" width="1" as="geometry">
            <mxRectangle width="1" as="alternateBounds" />
          </mxGeometry>
        </mxCell>
        <mxCell id="HjpduZWSPB27V8v7-c5q-1078" value="" style="shape=partialRectangle;html=1;whiteSpace=wrap;connectable=0;strokeColor=inherit;overflow=hidden;fillColor=none;top=0;left=0;bottom=0;right=0;pointerEvents=1;" vertex="1" parent="HjpduZWSPB27V8v7-c5q-1064">
          <mxGeometry x="20" width="2" as="geometry">
            <mxRectangle width="2" as="alternateBounds" />
          </mxGeometry>
        </mxCell>
        <mxCell id="HjpduZWSPB27V8v7-c5q-1079" value="" style="shape=partialRectangle;html=1;whiteSpace=wrap;connectable=0;strokeColor=inherit;overflow=hidden;fillColor=none;top=0;left=0;bottom=0;right=0;pointerEvents=1;" vertex="1" parent="HjpduZWSPB27V8v7-c5q-1064">
          <mxGeometry x="22" width="1" as="geometry">
            <mxRectangle width="1" as="alternateBounds" />
          </mxGeometry>
        </mxCell>
        <mxCell id="HjpduZWSPB27V8v7-c5q-1080" value="" style="shape=partialRectangle;html=1;whiteSpace=wrap;connectable=0;strokeColor=inherit;overflow=hidden;fillColor=none;top=0;left=0;bottom=0;right=0;pointerEvents=1;" vertex="1" parent="HjpduZWSPB27V8v7-c5q-1064">
          <mxGeometry x="23" width="2" as="geometry">
            <mxRectangle width="2" as="alternateBounds" />
          </mxGeometry>
        </mxCell>
        <mxCell id="HjpduZWSPB27V8v7-c5q-1081" value="" style="shape=tableRow;horizontal=0;startSize=0;swimlaneHead=0;swimlaneBody=0;strokeColor=inherit;top=0;left=0;bottom=0;right=0;collapsible=0;dropTarget=0;fillColor=none;points=[[0,0.5],[1,0.5]];portConstraint=eastwest;" vertex="1" parent="HjpduZWSPB27V8v7-c5q-876">
          <mxGeometry y="37" width="25" as="geometry" />
        </mxCell>
        <mxCell id="HjpduZWSPB27V8v7-c5q-1082" value="" style="shape=partialRectangle;html=1;whiteSpace=wrap;connectable=0;strokeColor=inherit;overflow=hidden;fillColor=none;top=0;left=0;bottom=0;right=0;pointerEvents=1;" vertex="1" parent="HjpduZWSPB27V8v7-c5q-1081">
          <mxGeometry width="2" as="geometry">
            <mxRectangle width="2" as="alternateBounds" />
          </mxGeometry>
        </mxCell>
        <mxCell id="HjpduZWSPB27V8v7-c5q-1083" value="" style="shape=partialRectangle;html=1;whiteSpace=wrap;connectable=0;strokeColor=inherit;overflow=hidden;fillColor=none;top=0;left=0;bottom=0;right=0;pointerEvents=1;" vertex="1" parent="HjpduZWSPB27V8v7-c5q-1081">
          <mxGeometry x="2" as="geometry">
            <mxRectangle as="alternateBounds" />
          </mxGeometry>
        </mxCell>
        <mxCell id="HjpduZWSPB27V8v7-c5q-1084" value="" style="shape=partialRectangle;html=1;whiteSpace=wrap;connectable=0;strokeColor=inherit;overflow=hidden;fillColor=none;top=0;left=0;bottom=0;right=0;pointerEvents=1;" vertex="1" parent="HjpduZWSPB27V8v7-c5q-1081">
          <mxGeometry x="2" width="3" as="geometry">
            <mxRectangle width="3" as="alternateBounds" />
          </mxGeometry>
        </mxCell>
        <mxCell id="HjpduZWSPB27V8v7-c5q-1085" value="" style="shape=partialRectangle;html=1;whiteSpace=wrap;connectable=0;strokeColor=inherit;overflow=hidden;fillColor=none;top=0;left=0;bottom=0;right=0;pointerEvents=1;" vertex="1" parent="HjpduZWSPB27V8v7-c5q-1081">
          <mxGeometry x="5" width="1" as="geometry">
            <mxRectangle width="1" as="alternateBounds" />
          </mxGeometry>
        </mxCell>
        <mxCell id="HjpduZWSPB27V8v7-c5q-1086" value="" style="shape=partialRectangle;html=1;whiteSpace=wrap;connectable=0;strokeColor=inherit;overflow=hidden;fillColor=none;top=0;left=0;bottom=0;right=0;pointerEvents=1;" vertex="1" parent="HjpduZWSPB27V8v7-c5q-1081">
          <mxGeometry x="6" width="2" as="geometry">
            <mxRectangle width="2" as="alternateBounds" />
          </mxGeometry>
        </mxCell>
        <mxCell id="HjpduZWSPB27V8v7-c5q-1087" value="" style="shape=partialRectangle;html=1;whiteSpace=wrap;connectable=0;strokeColor=inherit;overflow=hidden;fillColor=none;top=0;left=0;bottom=0;right=0;pointerEvents=1;" vertex="1" parent="HjpduZWSPB27V8v7-c5q-1081">
          <mxGeometry x="8" as="geometry">
            <mxRectangle as="alternateBounds" />
          </mxGeometry>
        </mxCell>
        <mxCell id="HjpduZWSPB27V8v7-c5q-1088" value="" style="shape=partialRectangle;html=1;whiteSpace=wrap;connectable=0;strokeColor=inherit;overflow=hidden;fillColor=none;top=0;left=0;bottom=0;right=0;pointerEvents=1;" vertex="1" parent="HjpduZWSPB27V8v7-c5q-1081">
          <mxGeometry x="8" width="3" as="geometry">
            <mxRectangle width="3" as="alternateBounds" />
          </mxGeometry>
        </mxCell>
        <mxCell id="HjpduZWSPB27V8v7-c5q-1089" value="" style="shape=partialRectangle;html=1;whiteSpace=wrap;connectable=0;strokeColor=inherit;overflow=hidden;fillColor=none;top=0;left=0;bottom=0;right=0;pointerEvents=1;" vertex="1" parent="HjpduZWSPB27V8v7-c5q-1081">
          <mxGeometry x="11" width="2" as="geometry">
            <mxRectangle width="2" as="alternateBounds" />
          </mxGeometry>
        </mxCell>
        <mxCell id="HjpduZWSPB27V8v7-c5q-1090" value="" style="shape=partialRectangle;html=1;whiteSpace=wrap;connectable=0;strokeColor=inherit;overflow=hidden;fillColor=none;top=0;left=0;bottom=0;right=0;pointerEvents=1;" vertex="1" parent="HjpduZWSPB27V8v7-c5q-1081">
          <mxGeometry x="13" width="1" as="geometry">
            <mxRectangle width="1" as="alternateBounds" />
          </mxGeometry>
        </mxCell>
        <mxCell id="HjpduZWSPB27V8v7-c5q-1091" value="" style="shape=partialRectangle;html=1;whiteSpace=wrap;connectable=0;strokeColor=inherit;overflow=hidden;fillColor=none;top=0;left=0;bottom=0;right=0;pointerEvents=1;" vertex="1" parent="HjpduZWSPB27V8v7-c5q-1081">
          <mxGeometry x="14" width="2" as="geometry">
            <mxRectangle width="2" as="alternateBounds" />
          </mxGeometry>
        </mxCell>
        <mxCell id="HjpduZWSPB27V8v7-c5q-1092" value="" style="shape=partialRectangle;html=1;whiteSpace=wrap;connectable=0;strokeColor=inherit;overflow=hidden;fillColor=none;top=0;left=0;bottom=0;right=0;pointerEvents=1;" vertex="1" parent="HjpduZWSPB27V8v7-c5q-1081">
          <mxGeometry x="16" width="1" as="geometry">
            <mxRectangle width="1" as="alternateBounds" />
          </mxGeometry>
        </mxCell>
        <mxCell id="HjpduZWSPB27V8v7-c5q-1093" value="" style="shape=partialRectangle;html=1;whiteSpace=wrap;connectable=0;strokeColor=inherit;overflow=hidden;fillColor=none;top=0;left=0;bottom=0;right=0;pointerEvents=1;" vertex="1" parent="HjpduZWSPB27V8v7-c5q-1081">
          <mxGeometry x="17" width="2" as="geometry">
            <mxRectangle width="2" as="alternateBounds" />
          </mxGeometry>
        </mxCell>
        <mxCell id="HjpduZWSPB27V8v7-c5q-1094" value="" style="shape=partialRectangle;html=1;whiteSpace=wrap;connectable=0;strokeColor=inherit;overflow=hidden;fillColor=none;top=0;left=0;bottom=0;right=0;pointerEvents=1;" vertex="1" parent="HjpduZWSPB27V8v7-c5q-1081">
          <mxGeometry x="19" width="1" as="geometry">
            <mxRectangle width="1" as="alternateBounds" />
          </mxGeometry>
        </mxCell>
        <mxCell id="HjpduZWSPB27V8v7-c5q-1095" value="" style="shape=partialRectangle;html=1;whiteSpace=wrap;connectable=0;strokeColor=inherit;overflow=hidden;fillColor=none;top=0;left=0;bottom=0;right=0;pointerEvents=1;" vertex="1" parent="HjpduZWSPB27V8v7-c5q-1081">
          <mxGeometry x="20" width="2" as="geometry">
            <mxRectangle width="2" as="alternateBounds" />
          </mxGeometry>
        </mxCell>
        <mxCell id="HjpduZWSPB27V8v7-c5q-1096" value="" style="shape=partialRectangle;html=1;whiteSpace=wrap;connectable=0;strokeColor=inherit;overflow=hidden;fillColor=none;top=0;left=0;bottom=0;right=0;pointerEvents=1;" vertex="1" parent="HjpduZWSPB27V8v7-c5q-1081">
          <mxGeometry x="22" width="1" as="geometry">
            <mxRectangle width="1" as="alternateBounds" />
          </mxGeometry>
        </mxCell>
        <mxCell id="HjpduZWSPB27V8v7-c5q-1097" value="" style="shape=partialRectangle;html=1;whiteSpace=wrap;connectable=0;strokeColor=inherit;overflow=hidden;fillColor=none;top=0;left=0;bottom=0;right=0;pointerEvents=1;" vertex="1" parent="HjpduZWSPB27V8v7-c5q-1081">
          <mxGeometry x="23" width="2" as="geometry">
            <mxRectangle width="2" as="alternateBounds" />
          </mxGeometry>
        </mxCell>
        <mxCell id="HjpduZWSPB27V8v7-c5q-1098" value="" style="shape=tableRow;horizontal=0;startSize=0;swimlaneHead=0;swimlaneBody=0;strokeColor=inherit;top=0;left=0;bottom=0;right=0;collapsible=0;dropTarget=0;fillColor=none;points=[[0,0.5],[1,0.5]];portConstraint=eastwest;" vertex="1" parent="HjpduZWSPB27V8v7-c5q-876">
          <mxGeometry y="37" width="25" height="1" as="geometry" />
        </mxCell>
        <mxCell id="HjpduZWSPB27V8v7-c5q-1099" value="" style="shape=partialRectangle;html=1;whiteSpace=wrap;connectable=0;strokeColor=inherit;overflow=hidden;fillColor=none;top=0;left=0;bottom=0;right=0;pointerEvents=1;" vertex="1" parent="HjpduZWSPB27V8v7-c5q-1098">
          <mxGeometry width="2" height="1" as="geometry">
            <mxRectangle width="2" height="1" as="alternateBounds" />
          </mxGeometry>
        </mxCell>
        <mxCell id="HjpduZWSPB27V8v7-c5q-1100" value="" style="shape=partialRectangle;html=1;whiteSpace=wrap;connectable=0;strokeColor=inherit;overflow=hidden;fillColor=none;top=0;left=0;bottom=0;right=0;pointerEvents=1;" vertex="1" parent="HjpduZWSPB27V8v7-c5q-1098">
          <mxGeometry x="2" height="1" as="geometry">
            <mxRectangle height="1" as="alternateBounds" />
          </mxGeometry>
        </mxCell>
        <mxCell id="HjpduZWSPB27V8v7-c5q-1101" value="" style="shape=partialRectangle;html=1;whiteSpace=wrap;connectable=0;strokeColor=inherit;overflow=hidden;fillColor=none;top=0;left=0;bottom=0;right=0;pointerEvents=1;" vertex="1" parent="HjpduZWSPB27V8v7-c5q-1098">
          <mxGeometry x="2" width="3" height="1" as="geometry">
            <mxRectangle width="3" height="1" as="alternateBounds" />
          </mxGeometry>
        </mxCell>
        <mxCell id="HjpduZWSPB27V8v7-c5q-1102" value="" style="shape=partialRectangle;html=1;whiteSpace=wrap;connectable=0;strokeColor=inherit;overflow=hidden;fillColor=none;top=0;left=0;bottom=0;right=0;pointerEvents=1;" vertex="1" parent="HjpduZWSPB27V8v7-c5q-1098">
          <mxGeometry x="5" width="1" height="1" as="geometry">
            <mxRectangle width="1" height="1" as="alternateBounds" />
          </mxGeometry>
        </mxCell>
        <mxCell id="HjpduZWSPB27V8v7-c5q-1103" value="" style="shape=partialRectangle;html=1;whiteSpace=wrap;connectable=0;strokeColor=inherit;overflow=hidden;fillColor=none;top=0;left=0;bottom=0;right=0;pointerEvents=1;" vertex="1" parent="HjpduZWSPB27V8v7-c5q-1098">
          <mxGeometry x="6" width="2" height="1" as="geometry">
            <mxRectangle width="2" height="1" as="alternateBounds" />
          </mxGeometry>
        </mxCell>
        <mxCell id="HjpduZWSPB27V8v7-c5q-1104" value="" style="shape=partialRectangle;html=1;whiteSpace=wrap;connectable=0;strokeColor=inherit;overflow=hidden;fillColor=none;top=0;left=0;bottom=0;right=0;pointerEvents=1;" vertex="1" parent="HjpduZWSPB27V8v7-c5q-1098">
          <mxGeometry x="8" height="1" as="geometry">
            <mxRectangle height="1" as="alternateBounds" />
          </mxGeometry>
        </mxCell>
        <mxCell id="HjpduZWSPB27V8v7-c5q-1105" value="" style="shape=partialRectangle;html=1;whiteSpace=wrap;connectable=0;strokeColor=inherit;overflow=hidden;fillColor=none;top=0;left=0;bottom=0;right=0;pointerEvents=1;" vertex="1" parent="HjpduZWSPB27V8v7-c5q-1098">
          <mxGeometry x="8" width="3" height="1" as="geometry">
            <mxRectangle width="3" height="1" as="alternateBounds" />
          </mxGeometry>
        </mxCell>
        <mxCell id="HjpduZWSPB27V8v7-c5q-1106" value="" style="shape=partialRectangle;html=1;whiteSpace=wrap;connectable=0;strokeColor=inherit;overflow=hidden;fillColor=none;top=0;left=0;bottom=0;right=0;pointerEvents=1;" vertex="1" parent="HjpduZWSPB27V8v7-c5q-1098">
          <mxGeometry x="11" width="2" height="1" as="geometry">
            <mxRectangle width="2" height="1" as="alternateBounds" />
          </mxGeometry>
        </mxCell>
        <mxCell id="HjpduZWSPB27V8v7-c5q-1107" value="" style="shape=partialRectangle;html=1;whiteSpace=wrap;connectable=0;strokeColor=inherit;overflow=hidden;fillColor=none;top=0;left=0;bottom=0;right=0;pointerEvents=1;" vertex="1" parent="HjpduZWSPB27V8v7-c5q-1098">
          <mxGeometry x="13" width="1" height="1" as="geometry">
            <mxRectangle width="1" height="1" as="alternateBounds" />
          </mxGeometry>
        </mxCell>
        <mxCell id="HjpduZWSPB27V8v7-c5q-1108" value="" style="shape=partialRectangle;html=1;whiteSpace=wrap;connectable=0;strokeColor=inherit;overflow=hidden;fillColor=none;top=0;left=0;bottom=0;right=0;pointerEvents=1;" vertex="1" parent="HjpduZWSPB27V8v7-c5q-1098">
          <mxGeometry x="14" width="2" height="1" as="geometry">
            <mxRectangle width="2" height="1" as="alternateBounds" />
          </mxGeometry>
        </mxCell>
        <mxCell id="HjpduZWSPB27V8v7-c5q-1109" value="" style="shape=partialRectangle;html=1;whiteSpace=wrap;connectable=0;strokeColor=inherit;overflow=hidden;fillColor=none;top=0;left=0;bottom=0;right=0;pointerEvents=1;" vertex="1" parent="HjpduZWSPB27V8v7-c5q-1098">
          <mxGeometry x="16" width="1" height="1" as="geometry">
            <mxRectangle width="1" height="1" as="alternateBounds" />
          </mxGeometry>
        </mxCell>
        <mxCell id="HjpduZWSPB27V8v7-c5q-1110" value="" style="shape=partialRectangle;html=1;whiteSpace=wrap;connectable=0;strokeColor=inherit;overflow=hidden;fillColor=none;top=0;left=0;bottom=0;right=0;pointerEvents=1;" vertex="1" parent="HjpduZWSPB27V8v7-c5q-1098">
          <mxGeometry x="17" width="2" height="1" as="geometry">
            <mxRectangle width="2" height="1" as="alternateBounds" />
          </mxGeometry>
        </mxCell>
        <mxCell id="HjpduZWSPB27V8v7-c5q-1111" value="" style="shape=partialRectangle;html=1;whiteSpace=wrap;connectable=0;strokeColor=inherit;overflow=hidden;fillColor=none;top=0;left=0;bottom=0;right=0;pointerEvents=1;" vertex="1" parent="HjpduZWSPB27V8v7-c5q-1098">
          <mxGeometry x="19" width="1" height="1" as="geometry">
            <mxRectangle width="1" height="1" as="alternateBounds" />
          </mxGeometry>
        </mxCell>
        <mxCell id="HjpduZWSPB27V8v7-c5q-1112" value="" style="shape=partialRectangle;html=1;whiteSpace=wrap;connectable=0;strokeColor=inherit;overflow=hidden;fillColor=none;top=0;left=0;bottom=0;right=0;pointerEvents=1;" vertex="1" parent="HjpduZWSPB27V8v7-c5q-1098">
          <mxGeometry x="20" width="2" height="1" as="geometry">
            <mxRectangle width="2" height="1" as="alternateBounds" />
          </mxGeometry>
        </mxCell>
        <mxCell id="HjpduZWSPB27V8v7-c5q-1113" value="" style="shape=partialRectangle;html=1;whiteSpace=wrap;connectable=0;strokeColor=inherit;overflow=hidden;fillColor=none;top=0;left=0;bottom=0;right=0;pointerEvents=1;" vertex="1" parent="HjpduZWSPB27V8v7-c5q-1098">
          <mxGeometry x="22" width="1" height="1" as="geometry">
            <mxRectangle width="1" height="1" as="alternateBounds" />
          </mxGeometry>
        </mxCell>
        <mxCell id="HjpduZWSPB27V8v7-c5q-1114" value="" style="shape=partialRectangle;html=1;whiteSpace=wrap;connectable=0;strokeColor=inherit;overflow=hidden;fillColor=none;top=0;left=0;bottom=0;right=0;pointerEvents=1;" vertex="1" parent="HjpduZWSPB27V8v7-c5q-1098">
          <mxGeometry x="23" width="2" height="1" as="geometry">
            <mxRectangle width="2" height="1" as="alternateBounds" />
          </mxGeometry>
        </mxCell>
        <mxCell id="HjpduZWSPB27V8v7-c5q-1115" value="" style="shape=tableRow;horizontal=0;startSize=0;swimlaneHead=0;swimlaneBody=0;strokeColor=inherit;top=0;left=0;bottom=0;right=0;collapsible=0;dropTarget=0;fillColor=none;points=[[0,0.5],[1,0.5]];portConstraint=eastwest;" vertex="1" parent="HjpduZWSPB27V8v7-c5q-876">
          <mxGeometry y="38" width="25" as="geometry" />
        </mxCell>
        <mxCell id="HjpduZWSPB27V8v7-c5q-1116" value="" style="shape=partialRectangle;html=1;whiteSpace=wrap;connectable=0;strokeColor=inherit;overflow=hidden;fillColor=none;top=0;left=0;bottom=0;right=0;pointerEvents=1;" vertex="1" parent="HjpduZWSPB27V8v7-c5q-1115">
          <mxGeometry width="2" as="geometry">
            <mxRectangle width="2" as="alternateBounds" />
          </mxGeometry>
        </mxCell>
        <mxCell id="HjpduZWSPB27V8v7-c5q-1117" value="" style="shape=partialRectangle;html=1;whiteSpace=wrap;connectable=0;strokeColor=inherit;overflow=hidden;fillColor=none;top=0;left=0;bottom=0;right=0;pointerEvents=1;" vertex="1" parent="HjpduZWSPB27V8v7-c5q-1115">
          <mxGeometry x="2" as="geometry">
            <mxRectangle as="alternateBounds" />
          </mxGeometry>
        </mxCell>
        <mxCell id="HjpduZWSPB27V8v7-c5q-1118" value="" style="shape=partialRectangle;html=1;whiteSpace=wrap;connectable=0;strokeColor=inherit;overflow=hidden;fillColor=none;top=0;left=0;bottom=0;right=0;pointerEvents=1;" vertex="1" parent="HjpduZWSPB27V8v7-c5q-1115">
          <mxGeometry x="2" width="3" as="geometry">
            <mxRectangle width="3" as="alternateBounds" />
          </mxGeometry>
        </mxCell>
        <mxCell id="HjpduZWSPB27V8v7-c5q-1119" value="" style="shape=partialRectangle;html=1;whiteSpace=wrap;connectable=0;strokeColor=inherit;overflow=hidden;fillColor=none;top=0;left=0;bottom=0;right=0;pointerEvents=1;" vertex="1" parent="HjpduZWSPB27V8v7-c5q-1115">
          <mxGeometry x="5" width="1" as="geometry">
            <mxRectangle width="1" as="alternateBounds" />
          </mxGeometry>
        </mxCell>
        <mxCell id="HjpduZWSPB27V8v7-c5q-1120" value="" style="shape=partialRectangle;html=1;whiteSpace=wrap;connectable=0;strokeColor=inherit;overflow=hidden;fillColor=none;top=0;left=0;bottom=0;right=0;pointerEvents=1;" vertex="1" parent="HjpduZWSPB27V8v7-c5q-1115">
          <mxGeometry x="6" width="2" as="geometry">
            <mxRectangle width="2" as="alternateBounds" />
          </mxGeometry>
        </mxCell>
        <mxCell id="HjpduZWSPB27V8v7-c5q-1121" value="" style="shape=partialRectangle;html=1;whiteSpace=wrap;connectable=0;strokeColor=inherit;overflow=hidden;fillColor=none;top=0;left=0;bottom=0;right=0;pointerEvents=1;" vertex="1" parent="HjpduZWSPB27V8v7-c5q-1115">
          <mxGeometry x="8" as="geometry">
            <mxRectangle as="alternateBounds" />
          </mxGeometry>
        </mxCell>
        <mxCell id="HjpduZWSPB27V8v7-c5q-1122" value="" style="shape=partialRectangle;html=1;whiteSpace=wrap;connectable=0;strokeColor=inherit;overflow=hidden;fillColor=none;top=0;left=0;bottom=0;right=0;pointerEvents=1;" vertex="1" parent="HjpduZWSPB27V8v7-c5q-1115">
          <mxGeometry x="8" width="3" as="geometry">
            <mxRectangle width="3" as="alternateBounds" />
          </mxGeometry>
        </mxCell>
        <mxCell id="HjpduZWSPB27V8v7-c5q-1123" value="" style="shape=partialRectangle;html=1;whiteSpace=wrap;connectable=0;strokeColor=inherit;overflow=hidden;fillColor=none;top=0;left=0;bottom=0;right=0;pointerEvents=1;" vertex="1" parent="HjpduZWSPB27V8v7-c5q-1115">
          <mxGeometry x="11" width="2" as="geometry">
            <mxRectangle width="2" as="alternateBounds" />
          </mxGeometry>
        </mxCell>
        <mxCell id="HjpduZWSPB27V8v7-c5q-1124" value="" style="shape=partialRectangle;html=1;whiteSpace=wrap;connectable=0;strokeColor=inherit;overflow=hidden;fillColor=none;top=0;left=0;bottom=0;right=0;pointerEvents=1;" vertex="1" parent="HjpduZWSPB27V8v7-c5q-1115">
          <mxGeometry x="13" width="1" as="geometry">
            <mxRectangle width="1" as="alternateBounds" />
          </mxGeometry>
        </mxCell>
        <mxCell id="HjpduZWSPB27V8v7-c5q-1125" value="" style="shape=partialRectangle;html=1;whiteSpace=wrap;connectable=0;strokeColor=inherit;overflow=hidden;fillColor=none;top=0;left=0;bottom=0;right=0;pointerEvents=1;" vertex="1" parent="HjpduZWSPB27V8v7-c5q-1115">
          <mxGeometry x="14" width="2" as="geometry">
            <mxRectangle width="2" as="alternateBounds" />
          </mxGeometry>
        </mxCell>
        <mxCell id="HjpduZWSPB27V8v7-c5q-1126" value="" style="shape=partialRectangle;html=1;whiteSpace=wrap;connectable=0;strokeColor=inherit;overflow=hidden;fillColor=none;top=0;left=0;bottom=0;right=0;pointerEvents=1;" vertex="1" parent="HjpduZWSPB27V8v7-c5q-1115">
          <mxGeometry x="16" width="1" as="geometry">
            <mxRectangle width="1" as="alternateBounds" />
          </mxGeometry>
        </mxCell>
        <mxCell id="HjpduZWSPB27V8v7-c5q-1127" value="" style="shape=partialRectangle;html=1;whiteSpace=wrap;connectable=0;strokeColor=inherit;overflow=hidden;fillColor=none;top=0;left=0;bottom=0;right=0;pointerEvents=1;" vertex="1" parent="HjpduZWSPB27V8v7-c5q-1115">
          <mxGeometry x="17" width="2" as="geometry">
            <mxRectangle width="2" as="alternateBounds" />
          </mxGeometry>
        </mxCell>
        <mxCell id="HjpduZWSPB27V8v7-c5q-1128" value="" style="shape=partialRectangle;html=1;whiteSpace=wrap;connectable=0;strokeColor=inherit;overflow=hidden;fillColor=none;top=0;left=0;bottom=0;right=0;pointerEvents=1;" vertex="1" parent="HjpduZWSPB27V8v7-c5q-1115">
          <mxGeometry x="19" width="1" as="geometry">
            <mxRectangle width="1" as="alternateBounds" />
          </mxGeometry>
        </mxCell>
        <mxCell id="HjpduZWSPB27V8v7-c5q-1129" value="" style="shape=partialRectangle;html=1;whiteSpace=wrap;connectable=0;strokeColor=inherit;overflow=hidden;fillColor=none;top=0;left=0;bottom=0;right=0;pointerEvents=1;" vertex="1" parent="HjpduZWSPB27V8v7-c5q-1115">
          <mxGeometry x="20" width="2" as="geometry">
            <mxRectangle width="2" as="alternateBounds" />
          </mxGeometry>
        </mxCell>
        <mxCell id="HjpduZWSPB27V8v7-c5q-1130" value="" style="shape=partialRectangle;html=1;whiteSpace=wrap;connectable=0;strokeColor=inherit;overflow=hidden;fillColor=none;top=0;left=0;bottom=0;right=0;pointerEvents=1;" vertex="1" parent="HjpduZWSPB27V8v7-c5q-1115">
          <mxGeometry x="22" width="1" as="geometry">
            <mxRectangle width="1" as="alternateBounds" />
          </mxGeometry>
        </mxCell>
        <mxCell id="HjpduZWSPB27V8v7-c5q-1131" value="" style="shape=partialRectangle;html=1;whiteSpace=wrap;connectable=0;strokeColor=inherit;overflow=hidden;fillColor=none;top=0;left=0;bottom=0;right=0;pointerEvents=1;" vertex="1" parent="HjpduZWSPB27V8v7-c5q-1115">
          <mxGeometry x="23" width="2" as="geometry">
            <mxRectangle width="2" as="alternateBounds" />
          </mxGeometry>
        </mxCell>
        <mxCell id="HjpduZWSPB27V8v7-c5q-1132" value="" style="shape=tableRow;horizontal=0;startSize=0;swimlaneHead=0;swimlaneBody=0;strokeColor=inherit;top=0;left=0;bottom=0;right=0;collapsible=0;dropTarget=0;fillColor=none;points=[[0,0.5],[1,0.5]];portConstraint=eastwest;" vertex="1" parent="HjpduZWSPB27V8v7-c5q-876">
          <mxGeometry y="38" width="25" as="geometry" />
        </mxCell>
        <mxCell id="HjpduZWSPB27V8v7-c5q-1133" value="" style="shape=partialRectangle;html=1;whiteSpace=wrap;connectable=0;strokeColor=inherit;overflow=hidden;fillColor=none;top=0;left=0;bottom=0;right=0;pointerEvents=1;" vertex="1" parent="HjpduZWSPB27V8v7-c5q-1132">
          <mxGeometry width="2" as="geometry">
            <mxRectangle width="2" as="alternateBounds" />
          </mxGeometry>
        </mxCell>
        <mxCell id="HjpduZWSPB27V8v7-c5q-1134" value="" style="shape=partialRectangle;html=1;whiteSpace=wrap;connectable=0;strokeColor=inherit;overflow=hidden;fillColor=none;top=0;left=0;bottom=0;right=0;pointerEvents=1;" vertex="1" parent="HjpduZWSPB27V8v7-c5q-1132">
          <mxGeometry x="2" as="geometry">
            <mxRectangle as="alternateBounds" />
          </mxGeometry>
        </mxCell>
        <mxCell id="HjpduZWSPB27V8v7-c5q-1135" value="" style="shape=partialRectangle;html=1;whiteSpace=wrap;connectable=0;strokeColor=inherit;overflow=hidden;fillColor=none;top=0;left=0;bottom=0;right=0;pointerEvents=1;" vertex="1" parent="HjpduZWSPB27V8v7-c5q-1132">
          <mxGeometry x="2" width="3" as="geometry">
            <mxRectangle width="3" as="alternateBounds" />
          </mxGeometry>
        </mxCell>
        <mxCell id="HjpduZWSPB27V8v7-c5q-1136" value="" style="shape=partialRectangle;html=1;whiteSpace=wrap;connectable=0;strokeColor=inherit;overflow=hidden;fillColor=none;top=0;left=0;bottom=0;right=0;pointerEvents=1;" vertex="1" parent="HjpduZWSPB27V8v7-c5q-1132">
          <mxGeometry x="5" width="1" as="geometry">
            <mxRectangle width="1" as="alternateBounds" />
          </mxGeometry>
        </mxCell>
        <mxCell id="HjpduZWSPB27V8v7-c5q-1137" value="" style="shape=partialRectangle;html=1;whiteSpace=wrap;connectable=0;strokeColor=inherit;overflow=hidden;fillColor=none;top=0;left=0;bottom=0;right=0;pointerEvents=1;" vertex="1" parent="HjpduZWSPB27V8v7-c5q-1132">
          <mxGeometry x="6" width="2" as="geometry">
            <mxRectangle width="2" as="alternateBounds" />
          </mxGeometry>
        </mxCell>
        <mxCell id="HjpduZWSPB27V8v7-c5q-1138" value="" style="shape=partialRectangle;html=1;whiteSpace=wrap;connectable=0;strokeColor=inherit;overflow=hidden;fillColor=none;top=0;left=0;bottom=0;right=0;pointerEvents=1;" vertex="1" parent="HjpduZWSPB27V8v7-c5q-1132">
          <mxGeometry x="8" as="geometry">
            <mxRectangle as="alternateBounds" />
          </mxGeometry>
        </mxCell>
        <mxCell id="HjpduZWSPB27V8v7-c5q-1139" value="" style="shape=partialRectangle;html=1;whiteSpace=wrap;connectable=0;strokeColor=inherit;overflow=hidden;fillColor=none;top=0;left=0;bottom=0;right=0;pointerEvents=1;" vertex="1" parent="HjpduZWSPB27V8v7-c5q-1132">
          <mxGeometry x="8" width="3" as="geometry">
            <mxRectangle width="3" as="alternateBounds" />
          </mxGeometry>
        </mxCell>
        <mxCell id="HjpduZWSPB27V8v7-c5q-1140" value="" style="shape=partialRectangle;html=1;whiteSpace=wrap;connectable=0;strokeColor=inherit;overflow=hidden;fillColor=none;top=0;left=0;bottom=0;right=0;pointerEvents=1;" vertex="1" parent="HjpduZWSPB27V8v7-c5q-1132">
          <mxGeometry x="11" width="2" as="geometry">
            <mxRectangle width="2" as="alternateBounds" />
          </mxGeometry>
        </mxCell>
        <mxCell id="HjpduZWSPB27V8v7-c5q-1141" value="" style="shape=partialRectangle;html=1;whiteSpace=wrap;connectable=0;strokeColor=inherit;overflow=hidden;fillColor=none;top=0;left=0;bottom=0;right=0;pointerEvents=1;" vertex="1" parent="HjpduZWSPB27V8v7-c5q-1132">
          <mxGeometry x="13" width="1" as="geometry">
            <mxRectangle width="1" as="alternateBounds" />
          </mxGeometry>
        </mxCell>
        <mxCell id="HjpduZWSPB27V8v7-c5q-1142" value="" style="shape=partialRectangle;html=1;whiteSpace=wrap;connectable=0;strokeColor=inherit;overflow=hidden;fillColor=none;top=0;left=0;bottom=0;right=0;pointerEvents=1;" vertex="1" parent="HjpduZWSPB27V8v7-c5q-1132">
          <mxGeometry x="14" width="2" as="geometry">
            <mxRectangle width="2" as="alternateBounds" />
          </mxGeometry>
        </mxCell>
        <mxCell id="HjpduZWSPB27V8v7-c5q-1143" value="" style="shape=partialRectangle;html=1;whiteSpace=wrap;connectable=0;strokeColor=inherit;overflow=hidden;fillColor=none;top=0;left=0;bottom=0;right=0;pointerEvents=1;" vertex="1" parent="HjpduZWSPB27V8v7-c5q-1132">
          <mxGeometry x="16" width="1" as="geometry">
            <mxRectangle width="1" as="alternateBounds" />
          </mxGeometry>
        </mxCell>
        <mxCell id="HjpduZWSPB27V8v7-c5q-1144" value="" style="shape=partialRectangle;html=1;whiteSpace=wrap;connectable=0;strokeColor=inherit;overflow=hidden;fillColor=none;top=0;left=0;bottom=0;right=0;pointerEvents=1;" vertex="1" parent="HjpduZWSPB27V8v7-c5q-1132">
          <mxGeometry x="17" width="2" as="geometry">
            <mxRectangle width="2" as="alternateBounds" />
          </mxGeometry>
        </mxCell>
        <mxCell id="HjpduZWSPB27V8v7-c5q-1145" value="" style="shape=partialRectangle;html=1;whiteSpace=wrap;connectable=0;strokeColor=inherit;overflow=hidden;fillColor=none;top=0;left=0;bottom=0;right=0;pointerEvents=1;" vertex="1" parent="HjpduZWSPB27V8v7-c5q-1132">
          <mxGeometry x="19" width="1" as="geometry">
            <mxRectangle width="1" as="alternateBounds" />
          </mxGeometry>
        </mxCell>
        <mxCell id="HjpduZWSPB27V8v7-c5q-1146" value="" style="shape=partialRectangle;html=1;whiteSpace=wrap;connectable=0;strokeColor=inherit;overflow=hidden;fillColor=none;top=0;left=0;bottom=0;right=0;pointerEvents=1;" vertex="1" parent="HjpduZWSPB27V8v7-c5q-1132">
          <mxGeometry x="20" width="2" as="geometry">
            <mxRectangle width="2" as="alternateBounds" />
          </mxGeometry>
        </mxCell>
        <mxCell id="HjpduZWSPB27V8v7-c5q-1147" value="" style="shape=partialRectangle;html=1;whiteSpace=wrap;connectable=0;strokeColor=inherit;overflow=hidden;fillColor=none;top=0;left=0;bottom=0;right=0;pointerEvents=1;" vertex="1" parent="HjpduZWSPB27V8v7-c5q-1132">
          <mxGeometry x="22" width="1" as="geometry">
            <mxRectangle width="1" as="alternateBounds" />
          </mxGeometry>
        </mxCell>
        <mxCell id="HjpduZWSPB27V8v7-c5q-1148" value="" style="shape=partialRectangle;html=1;whiteSpace=wrap;connectable=0;strokeColor=inherit;overflow=hidden;fillColor=none;top=0;left=0;bottom=0;right=0;pointerEvents=1;" vertex="1" parent="HjpduZWSPB27V8v7-c5q-1132">
          <mxGeometry x="23" width="2" as="geometry">
            <mxRectangle width="2" as="alternateBounds" />
          </mxGeometry>
        </mxCell>
        <mxCell id="HjpduZWSPB27V8v7-c5q-1150" style="edgeStyle=none;curved=1;rounded=0;orthogonalLoop=1;jettySize=auto;html=1;exitX=0.5;exitY=0;exitDx=0;exitDy=0;fontSize=12;startSize=8;endSize=8;" edge="1" parent="HjpduZWSPB27V8v7-c5q-876" source="HjpduZWSPB27V8v7-c5q-876" target="HjpduZWSPB27V8v7-c5q-877">
          <mxGeometry relative="1" as="geometry" />
        </mxCell>
        <mxCell id="HjpduZWSPB27V8v7-c5q-1" value="" style="verticalLabelPosition=bottom;verticalAlign=top;html=1;shadow=0;dashed=0;strokeWidth=1;shape=mxgraph.android.phone2;strokeColor=#c0c0c0;" vertex="1" parent="1">
          <mxGeometry x="120" y="-1523" width="200" height="398" as="geometry" />
        </mxCell>
        <mxCell id="HjpduZWSPB27V8v7-c5q-423" value="" style="verticalLabelPosition=bottom;verticalAlign=top;html=1;shadow=0;dashed=0;strokeWidth=1;shape=mxgraph.android.phone2;strokeColor=#c0c0c0;" vertex="1" parent="1">
          <mxGeometry x="-227" y="-1520" width="200" height="395" as="geometry" />
        </mxCell>
        <mxCell id="HjpduZWSPB27V8v7-c5q-1149" value="" style="verticalLabelPosition=bottom;verticalAlign=top;html=1;shadow=0;dashed=0;strokeWidth=1;shape=mxgraph.android.phone2;strokeColor=#c0c0c0;" vertex="1" parent="1">
          <mxGeometry x="472" y="-1520" width="200" height="398" as="geometry" />
        </mxCell>
        <mxCell id="HjpduZWSPB27V8v7-c5q-1152" value="user name" style="rounded=0;whiteSpace=wrap;html=1;" vertex="1" parent="1">
          <mxGeometry x="-190" y="-1319" width="120" height="30" as="geometry" />
        </mxCell>
        <mxCell id="HjpduZWSPB27V8v7-c5q-1153" value="password" style="rounded=0;whiteSpace=wrap;html=1;" vertex="1" parent="1">
          <mxGeometry x="-187" y="-1255" width="120" height="22" as="geometry" />
        </mxCell>
        <mxCell id="HjpduZWSPB27V8v7-c5q-1154" value="pr1" style="whiteSpace=wrap;html=1;aspect=fixed;" vertex="1" parent="1">
          <mxGeometry x="141" y="-1450" width="70" height="70" as="geometry" />
        </mxCell>
        <mxCell id="HjpduZWSPB27V8v7-c5q-1155" value="pr2" style="whiteSpace=wrap;html=1;aspect=fixed;" vertex="1" parent="1">
          <mxGeometry x="231" y="-1450" width="71" height="71" as="geometry" />
        </mxCell>
        <mxCell id="HjpduZWSPB27V8v7-c5q-1156" value="pr3" style="whiteSpace=wrap;html=1;aspect=fixed;" vertex="1" parent="1">
          <mxGeometry x="143" y="-1356.5" width="70" height="70" as="geometry" />
        </mxCell>
        <mxCell id="HjpduZWSPB27V8v7-c5q-1157" value="pr4" style="whiteSpace=wrap;html=1;aspect=fixed;" vertex="1" parent="1">
          <mxGeometry x="233" y="-1356.5" width="71" height="71" as="geometry" />
        </mxCell>
        <mxCell id="HjpduZWSPB27V8v7-c5q-1160" value="pr4" style="whiteSpace=wrap;html=1;aspect=fixed;" vertex="1" parent="1">
          <mxGeometry x="146" y="-1263" width="70" height="70" as="geometry" />
        </mxCell>
        <mxCell id="HjpduZWSPB27V8v7-c5q-1161" value="pr5" style="whiteSpace=wrap;html=1;aspect=fixed;" vertex="1" parent="1">
          <mxGeometry x="236" y="-1263" width="71" height="71" as="geometry" />
        </mxCell>
      </root>
    </mxGraphModel>
  </diagram>
</mxfile>
